<?xml version="1.0" standalone="no"?>
<!DOCTYPE svg PUBLIC "-//W3C//DTD SVG 20010904//EN"
 "http://www.w3.org/TR/2001/REC-SVG-20010904/DTD/svg10.dtd">
<svg version="1.0" xmlns="http://www.w3.org/2000/svg"
 width="850.000000pt" height="850.000000pt" viewBox="0 0 850.000000 850.000000"
 preserveAspectRatio="xMidYMid meet">
<metadata>
Created by potrace 1.14, written by Peter Selinger 2001-2017
</metadata>
<g transform="translate(0.000000,850.000000) scale(0.100000,-0.100000)"
fill="#000000" stroke="none">
<path d="M4132 6559 c-18 -10 -35 -13 -38 -8 -3 5 -10 6 -16 3 -6 -4 -14 0
-19 7 -7 11 -9 9 -9 -6 0 -17 -2 -17 -10 -5 -5 8 -10 10 -10 4 0 -6 -16 -12
-35 -13 -65 -3 -75 -5 -75 -16 0 -5 -5 -3 -10 5 -7 12 -10 12 -10 1 0 -7 -6
-11 -14 -8 -7 3 -19 0 -25 -6 -8 -8 -11 -7 -11 4 0 12 -2 12 -10 -1 -5 -8 -10
-11 -10 -6 0 5 -8 2 -17 -5 -15 -12 -16 -12 -8 1 7 12 6 13 -7 3 -8 -7 -18
-10 -21 -6 -4 3 -7 1 -7 -5 0 -6 -9 -9 -20 -7 -11 2 -20 -1 -20 -7 0 -6 -7 -5
-17 3 -9 8 -14 9 -10 3 4 -7 0 -14 -8 -18 -8 -3 -15 0 -15 6 0 7 -7 3 -16 -8
-8 -10 -12 -12 -8 -4 7 12 5 13 -8 3 -8 -7 -18 -10 -21 -6 -4 3 -7 1 -7 -6 0
-8 -8 -11 -20 -8 -11 3 -20 1 -20 -4 0 -5 -9 -9 -20 -9 -11 0 -20 -4 -20 -9 0
-5 -8 -8 -17 -7 -10 2 -20 -1 -23 -5 -3 -5 -17 -10 -30 -12 -13 -2 -26 -9 -28
-15 -2 -7 -8 -10 -13 -6 -10 6 -116 -43 -125 -57 -3 -5 -10 -7 -15 -4 -5 4 -9
1 -9 -5 0 -6 -4 -9 -9 -5 -5 3 -16 -1 -24 -9 -8 -8 -17 -12 -21 -9 -3 4 -6 1
-6 -5 0 -7 -6 -12 -13 -12 -7 0 -23 -9 -34 -19 -12 -11 -24 -17 -27 -14 -3 4
-15 -4 -25 -16 -11 -13 -25 -20 -30 -16 -6 3 -11 -1 -11 -10 0 -9 -4 -14 -9
-11 -5 3 -14 -1 -21 -9 -7 -8 -16 -12 -21 -9 -5 3 -9 -2 -9 -10 0 -9 -4 -16
-10 -16 -9 0 -35 -19 -65 -47 -8 -7 -19 -13 -25 -13 -6 0 -8 -4 -5 -10 3 -5 1
-10 -5 -10 -6 0 -26 -16 -44 -35 -19 -19 -38 -35 -45 -35 -6 0 -11 -3 -11 -8
0 -14 -58 -71 -66 -64 -4 4 -4 2 -1 -5 4 -6 -5 -21 -19 -32 -15 -12 -23 -21
-18 -21 5 0 -3 -11 -18 -24 -16 -13 -28 -28 -28 -35 0 -6 -5 -11 -12 -11 -6 0
-8 -3 -5 -6 4 -4 -3 -15 -14 -25 -11 -9 -21 -21 -21 -26 -3 -19 -35 -62 -43
-55 -5 4 -5 2 -2 -5 4 -6 0 -18 -8 -27 -9 -8 -16 -18 -16 -21 1 -14 -14 -41
-26 -48 -7 -5 -11 -13 -7 -18 3 -5 0 -16 -6 -24 -6 -8 -9 -19 -6 -24 4 -5 -2
-14 -11 -20 -10 -6 -14 -11 -9 -11 5 0 3 -7 -4 -15 -7 -8 -9 -15 -5 -15 4 0 2
-7 -5 -15 -7 -8 -10 -22 -6 -30 3 -9 2 -14 -3 -11 -11 7 -23 -22 -15 -35 3 -5
0 -9 -6 -9 -6 0 -8 -5 -5 -10 4 -6 2 -16 -3 -23 -12 -14 -12 -15 -12 -58 0
-16 -4 -28 -8 -25 -5 3 -8 -5 -7 -17 1 -12 -2 -34 -6 -49 -5 -18 -4 -28 3 -28
6 0 3 -11 -6 -25 -9 -14 -14 -30 -11 -35 3 -6 -2 -10 -12 -10 -15 0 -16 -2 -3
-10 10 -6 11 -10 3 -10 -7 0 -15 -11 -19 -25 -3 -14 -11 -22 -17 -18 -6 4 -8
0 -4 -10 3 -10 2 -17 -3 -17 -6 0 -10 -9 -10 -21 0 -15 -5 -19 -15 -15 -13 5
-14 2 -4 -15 8 -15 8 -19 0 -15 -6 4 -11 2 -11 -4 0 -6 -3 -9 -7 -7 -5 3 -9
-9 -9 -26 -1 -17 -6 -33 -13 -35 -6 -2 -9 -8 -5 -13 3 -5 -1 -9 -8 -9 -9 0 -9
-3 2 -10 10 -6 11 -10 3 -10 -7 0 -13 -6 -13 -13 0 -8 -9 -22 -20 -32 -11 -10
-20 -23 -20 -28 0 -6 7 -2 15 9 8 10 15 14 15 7 0 -6 -6 -18 -13 -25 -8 -7
-12 -23 -11 -35 5 -28 -12 -38 -34 -21 -15 11 -16 11 -4 -3 16 -21 12 -90 -5
-96 -7 -3 -13 -9 -13 -15 0 -5 4 -7 8 -4 5 3 9 -1 9 -9 0 -8 -4 -12 -8 -10 -3
3 -12 -2 -19 -10 -11 -13 -10 -14 3 -9 12 4 14 1 10 -15 -3 -12 -10 -21 -15
-21 -5 0 -6 6 -2 13 4 6 3 9 -1 4 -5 -4 -10 -18 -11 -30 -2 -12 0 -16 2 -9 8
18 20 14 20 -7 0 -11 -3 -18 -7 -15 -4 2 -14 1 -22 -2 -20 -7 -18 -45 2 -41 7
1 16 -5 18 -13 4 -13 3 -13 -6 0 -9 13 -11 12 -11 -4 0 -15 -3 -16 -14 -7 -10
8 -16 9 -21 1 -6 -9 1 -14 18 -11 4 0 7 -4 7 -10 0 -5 5 -7 10 -4 6 3 10 2 10
-3 0 -5 -11 -9 -25 -9 -14 0 -25 3 -25 8 0 5 -5 9 -11 9 -5 0 -3 -10 5 -22 21
-30 20 -44 -1 -27 -15 12 -16 12 -7 -1 15 -25 12 -61 -6 -55 -11 4 -11 2 2 -8
10 -8 15 -17 11 -20 -3 -4 -12 -2 -19 4 -8 7 -14 6 -20 -2 -4 -7 -3 -9 4 -5 6
3 13 2 17 -4 4 -6 11 -8 16 -5 5 4 9 -3 9 -14 0 -11 5 -23 10 -26 8 -5 8 -11
0 -20 -8 -10 -7 -14 2 -18 7 -3 3 -4 -9 -4 -20 1 -21 3 -7 18 9 10 11 19 5 23
-5 4 -12 -3 -16 -14 -7 -23 -16 -25 -32 -9 -9 9 -11 7 -9 -7 2 -11 10 -18 19
-16 9 1 14 -4 13 -12 -3 -20 -16 -33 -16 -16 0 9 -3 10 -13 1 -8 -6 -17 -8
-20 -4 -4 3 -7 1 -7 -6 0 -8 7 -10 22 -5 20 6 21 5 9 -10 -7 -9 -10 -16 -5
-16 4 0 -1 -7 -12 -15 -12 -9 -13 -13 -4 -10 11 4 16 -1 17 -15 2 -17 -1 -18
-17 -10 -16 8 -18 8 -14 -5 3 -8 11 -12 17 -8 6 4 8 0 4 -10 -3 -9 -2 -19 4
-22 5 -4 7 -11 4 -16 -4 -5 -12 -3 -19 4 -8 6 -11 16 -8 21 3 5 0 6 -7 2 -9
-6 -9 -11 0 -22 8 -10 8 -14 0 -14 -6 0 -11 -5 -11 -11 0 -8 5 -8 15 1 9 8 15
9 15 2 0 -6 -4 -13 -8 -16 -5 -3 -8 -15 -7 -28 1 -13 -7 -35 -17 -50 -11 -16
-16 -28 -11 -28 12 0 44 56 36 64 -3 3 -2 6 4 6 6 0 14 -7 17 -16 9 -22 8 -26
-6 -18 -7 4 -8 3 -4 -4 4 -7 3 -12 -2 -12 -5 0 -18 -12 -28 -27 -15 -24 -15
-26 -1 -14 20 16 23 1 5 -18 -9 -10 -9 -12 -1 -7 7 4 11 0 11 -11 0 -10 1 -24
3 -32 2 -7 -1 -15 -7 -18 -7 -2 -11 4 -10 13 0 9 -5 18 -12 20 -7 1 -8 0 -2
-3 5 -2 10 -9 10 -14 0 -6 -6 -7 -12 -3 -10 6 -10 5 -1 -8 7 -8 10 -18 6 -22
-4 -4 1 -4 12 0 18 7 19 6 6 -10 -10 -12 -17 -14 -25 -6 -13 13 -26 13 -26 -2
0 -6 3 -8 7 -5 3 4 12 2 19 -4 8 -7 14 -7 19 1 5 8 14 6 31 -5 16 -10 24 -11
24 -4 0 8 4 8 15 -1 18 -15 10 -32 -12 -28 -9 2 -18 -3 -21 -11 -3 -8 0 -11 6
-7 6 3 14 1 17 -4 5 -7 12 -5 20 7 13 17 14 17 12 -4 0 -12 -4 -20 -8 -17 -4
2 -10 -3 -13 -11 -3 -9 1 -18 9 -21 11 -5 7 -12 -15 -31 -17 -14 -30 -30 -30
-36 0 -6 12 0 27 14 14 13 23 19 20 12 -4 -6 -4 -13 0 -16 5 -2 3 -2 -4 -1 -7
2 -15 -1 -18 -6 -4 -6 -1 -10 5 -10 6 0 8 -5 4 -11 -4 -8 -9 -7 -15 2 -7 12
-9 11 -9 -1 -1 -13 -2 -13 -10 1 -5 8 -7 24 -6 35 2 10 -2 23 -8 27 -7 6 -5 7
6 3 13 -4 15 -1 11 11 -5 13 -2 15 13 9 14 -5 16 -4 8 4 -6 6 -20 13 -30 14
-10 2 -20 8 -22 15 -3 9 6 7 28 -4 24 -12 31 -13 28 -3 -3 7 -10 14 -16 14 -7
1 -16 2 -20 3 -5 0 -9 8 -9 16 0 8 3 12 7 10 4 -2 7 2 7 10 0 15 -35 12 -51
-6 -8 -9 -7 -10 6 -6 10 3 20 2 23 -3 4 -6 1 -10 -6 -10 -6 0 -9 -8 -6 -20 4
-15 0 -20 -16 -21 -21 -1 -19 -2 22 -15 11 -4 11 -7 0 -21 -12 -14 -12 -16 0
-9 9 6 12 5 9 -5 -3 -8 1 -26 9 -42 8 -16 9 -27 3 -27 -5 0 -10 4 -10 8 0 5
-7 17 -16 28 -14 18 -15 18 -4 -3 6 -13 7 -23 3 -23 -4 -1 1 -6 12 -13 11 -7
21 -18 22 -24 4 -18 -4 -16 -27 7 -11 11 -26 20 -32 20 -7 -1 -2 -7 12 -15 14
-8 21 -15 15 -15 -5 0 1 -7 14 -14 15 -8 20 -16 12 -20 -16 -10 -13 -26 5 -26
10 0 14 6 11 15 -4 8 -2 17 2 20 5 2 8 17 6 32 -2 23 2 28 21 29 13 1 21 -2
18 -7 -3 -5 -12 -9 -20 -9 -10 0 -5 -9 13 -25 15 -14 21 -23 12 -20 -9 4 -16
0 -16 -7 0 -7 -2 -19 -4 -27 -2 -7 2 -16 9 -18 7 -3 12 -1 11 4 -3 17 1 33 9
33 11 0 10 -56 -1 -66 -4 -5 -5 -2 -2 7 4 11 -1 15 -22 15 -19 -1 -27 4 -25
13 2 11 0 12 -11 3 -8 -7 -17 -9 -20 -5 -4 3 -7 1 -7 -6 0 -6 7 -11 16 -9 10
2 19 -2 21 -9 3 -8 -6 -10 -26 -8 -17 2 -31 0 -31 -5 0 -6 5 -9 12 -7 15 3 18
-25 3 -35 -6 -5 -5 -8 3 -8 8 0 10 -5 5 -12 -4 -7 4 -5 19 4 25 16 38 15 38
-4 0 -5 -4 -7 -9 -4 -5 3 -17 -2 -28 -12 -10 -9 -14 -14 -9 -9 19 14 26 7 14
-12 -7 -11 -15 -18 -19 -15 -4 2 -10 0 -13 -5 -11 -16 26 -5 39 12 13 18 25
13 25 -10 0 -8 -4 -12 -9 -9 -14 9 -29 -17 -22 -38 7 -17 8 -18 14 -3 3 9 2
17 -4 17 -6 0 -8 4 -5 9 4 5 14 8 24 6 9 -2 19 -4 22 -4 3 -1 1 -5 -5 -9 -21
-15 -33 -49 -24 -63 8 -11 9 -10 7 5 -2 10 2 21 9 23 12 4 11 -26 -2 -47 -4
-6 1 -7 10 -3 10 3 21 0 26 -8 6 -10 9 -11 9 -1 0 7 -7 15 -15 18 -14 6 -13 8
2 19 15 11 15 13 -7 25 -22 12 -22 14 -6 25 12 9 14 14 4 17 -7 3 -3 7 9 10
17 5 20 2 15 -11 -5 -14 -4 -14 11 -2 25 20 20 2 -5 -20 -21 -19 -22 -20 -3
-15 14 4 25 -1 33 -15 8 -12 9 -18 4 -15 -6 3 -12 -1 -16 -9 -3 -8 3 -19 12
-24 11 -7 12 -11 4 -11 -7 0 -10 -5 -7 -10 4 -6 11 -8 16 -5 5 3 6 -1 3 -10
-4 -10 -2 -15 7 -13 10 2 14 -8 14 -32 0 -28 5 -37 28 -48 23 -11 26 -16 16
-33 -7 -14 -7 -24 0 -33 7 -9 7 -16 -2 -25 -9 -10 -9 -12 3 -11 27 4 40 0 40
-11 0 -5 -4 -8 -9 -4 -5 3 -12 1 -15 -4 -4 -5 3 -12 14 -16 11 -3 20 -10 20
-15 0 -5 8 -7 18 -4 13 5 14 4 3 -4 -16 -11 -41 -5 -41 10 0 5 -4 7 -9 3 -6
-3 0 -16 12 -28 13 -13 25 -18 29 -12 4 5 11 6 15 1 4 -5 2 -11 -5 -13 -6 -3
-9 -10 -5 -16 4 -7 0 -6 -10 1 -9 8 -22 10 -29 6 -7 -4 -10 -4 -6 1 4 4 1 17
-7 27 -7 11 -11 27 -8 36 5 10 2 13 -6 8 -7 -5 -10 -14 -8 -20 3 -7 -1 -13 -8
-13 -8 0 -13 8 -12 18 1 10 6 15 12 13 5 -3 2 1 -8 9 -22 18 -22 28 1 21 14
-5 14 -4 2 4 -20 15 -32 4 -25 -21 6 -21 5 -21 -13 2 -14 18 -21 21 -27 11 -6
-9 -4 -11 5 -5 10 6 12 4 6 -11 -4 -10 -4 -15 0 -11 9 9 35 -13 28 -24 -4 -8
8 -13 27 -11 3 1 12 -10 19 -24 8 -14 20 -22 27 -20 8 3 16 0 19 -7 2 -7 14
-13 24 -14 11 -1 18 2 16 6 -3 4 1 17 10 27 14 18 15 18 4 -3 -10 -21 2 -35
13 -15 2 4 2 1 1 -5 -2 -7 1 -13 6 -13 6 0 10 -5 10 -11 0 -8 -4 -8 -14 0 -11
9 -20 9 -35 2 -16 -9 -23 -7 -35 11 -9 12 -16 18 -16 12 0 -5 5 -15 12 -22 9
-9 9 -12 0 -12 -6 0 -16 8 -21 18 -6 9 -11 12 -11 5 0 -6 5 -15 10 -18 6 -3
10 -11 10 -18 0 -8 -3 -8 -12 1 -7 7 -16 12 -20 12 -4 0 0 -8 9 -18 16 -16 19
-17 30 -2 14 19 77 21 79 3 3 -26 4 -28 12 -16 6 9 11 6 21 -8 7 -12 8 -18 2
-14 -6 3 -11 2 -11 -4 0 -5 7 -14 15 -19 14 -7 14 -12 2 -35 -8 -15 -17 -24
-20 -20 -4 3 -1 13 6 21 10 13 9 14 -2 7 -10 -6 -12 -4 -6 5 6 9 4 11 -5 5 -9
-6 -11 -4 -5 5 5 8 4 11 -1 7 -6 -3 -16 -2 -24 4 -12 7 -12 9 -1 9 11 0 11 3
0 18 -11 14 -10 13 9 -2 12 -11 22 -14 22 -9 0 17 -28 35 -41 27 -8 -5 -9 -3
-4 6 6 9 4 11 -5 5 -9 -6 -11 -4 -5 4 6 10 3 11 -13 2 -21 -11 -37 -41 -22
-41 6 0 10 7 10 15 0 8 4 15 10 15 11 0 1 -32 -14 -42 -7 -5 -7 -8 2 -8 7 0
16 10 21 22 6 16 10 18 16 8 5 -9 0 -20 -15 -32 -12 -10 -18 -18 -13 -18 5 0
15 6 22 13 12 10 13 8 7 -8 -13 -36 -11 -40 16 -40 16 -1 34 -7 40 -14 11 -11
8 -12 -12 -7 -14 3 -19 3 -12 0 6 -3 10 -10 6 -15 -3 -5 -1 -9 5 -9 5 0 13 4
16 10 3 5 11 10 17 10 6 0 3 -9 -7 -20 -10 -11 -13 -20 -7 -20 7 0 12 4 12 10
0 5 7 7 16 3 14 -5 12 -8 -7 -19 -30 -16 -19 -18 15 -3 22 10 28 9 45 -12 11
-13 20 -18 21 -12 0 19 -39 55 -52 47 -7 -4 -8 -3 -4 4 5 8 1 10 -11 6 -10 -3
-6 2 9 10 15 9 34 13 42 10 18 -7 22 -24 5 -24 -5 0 -7 -5 -4 -10 4 -6 10 -8
15 -5 5 3 12 0 16 -6 4 -8 3 -9 -4 -5 -7 4 -12 3 -12 -1 0 -5 10 -13 23 -18
12 -6 21 -16 20 -23 -2 -7 3 -12 10 -12 8 0 7 -4 -3 -10 -13 -8 -12 -10 3 -10
14 0 17 -5 11 -22 -6 -20 -5 -21 9 -9 9 7 15 16 13 20 -3 4 0 13 5 21 7 12 8
11 6 -5 -1 -11 -6 -26 -10 -32 -10 -16 5 -17 21 -1 8 8 12 9 12 1 0 -6 -6 -13
-12 -16 -7 -2 -9 -8 -5 -13 5 -5 15 -1 23 10 8 11 14 15 14 9 0 -7 -4 -15 -10
-18 -5 -3 -10 -11 -10 -18 0 -8 3 -8 12 1 7 7 17 12 22 12 6 0 2 -7 -8 -15
-10 -8 -24 -12 -29 -8 -6 4 -8 0 -4 -10 3 -9 0 -18 -9 -21 -17 -6 -18 -1 -3
26 8 15 8 19 0 13 -7 -4 -10 -1 -9 7 2 7 -3 12 -10 10 -8 -1 -11 2 -7 7 3 6
-3 8 -15 6 -20 -4 -23 13 -5 28 6 5 3 7 -7 4 -12 -4 -16 -1 -13 14 4 17 -6 24
-28 20 -5 -1 -6 3 -2 8 3 6 13 8 23 5 14 -5 14 -4 2 4 -9 7 -19 7 -25 2 -7 -6
-16 -5 -25 3 -9 8 -11 9 -6 0 3 -6 1 -15 -5 -19 -9 -5 -10 0 -7 14 6 23 -6 39
-17 22 -3 -5 1 -23 10 -40 9 -17 13 -35 10 -40 -3 -5 4 -7 15 -5 12 2 26 -4
35 -18 14 -20 14 -22 -2 -29 -16 -7 -15 -7 2 -5 11 2 19 9 17 18 -3 12 -1 12
10 1 11 -11 10 -16 -6 -28 -11 -8 -15 -14 -10 -14 6 0 15 5 21 11 13 13 46
-28 36 -44 -3 -6 -1 -7 5 -3 7 4 12 3 12 -3 0 -6 11 -13 25 -17 14 -3 22 -10
19 -15 -3 -5 0 -9 6 -9 7 0 9 7 6 16 -3 8 -2 12 3 9 5 -3 12 -1 15 4 4 6 -7 8
-24 6 -28 -4 -29 -2 -19 17 9 16 8 19 -3 13 -7 -3 -2 3 12 15 l25 22 26 -32
c24 -28 28 -30 32 -14 3 11 4 2 2 -18 -3 -36 9 -61 17 -36 5 15 52 -20 56 -42
2 -8 14 -25 28 -36 17 -14 22 -24 15 -28 -6 -4 -9 -12 -6 -17 4 -5 1 -9 -4 -9
-12 0 -15 26 -3 33 4 2 1 2 -6 0 -8 -1 -10 2 -6 9 5 7 3 8 -6 3 -9 -6 -11 -4
-5 5 6 9 4 11 -6 5 -8 -5 -11 -5 -7 0 13 13 -25 34 -43 24 -12 -6 -19 -4 -23
7 -9 24 -7 29 6 16 7 -7 17 -12 22 -12 6 0 4 5 -4 10 -13 8 -12 10 3 10 10 0
15 5 12 10 -4 7 -12 7 -18 2 -15 -11 -26 -9 -56 7 -14 8 -21 9 -17 2 4 -6 2
-11 -3 -11 -6 0 -11 -5 -11 -11 0 -5 4 -8 10 -4 10 6 50 -15 50 -28 0 -4 -5
-5 -12 -1 -7 4 -8 3 -4 -5 4 -6 12 -9 17 -6 5 4 9 1 9 -4 0 -6 5 -11 11 -11 5
0 7 5 4 10 -3 5 3 10 14 10 12 0 21 -5 21 -11 0 -5 -5 -7 -11 -3 -8 4 -8 1 -1
-12 5 -11 12 -26 16 -34 3 -8 4 -2 0 14 -5 26 -3 28 11 16 9 -7 14 -19 11 -26
-7 -18 24 -27 42 -12 13 11 14 10 8 -8 -6 -21 7 -34 39 -40 6 -1 15 -3 20 -4
6 -1 1 -5 -10 -10 -17 -7 -17 -9 -3 -9 10 -1 20 -12 24 -27 l6 -25 12 23 c7
13 21 23 33 23 12 0 24 3 28 7 4 4 14 4 23 1 10 -4 14 -3 10 2 -4 4 -3 14 3
22 9 10 7 13 -6 13 -10 0 -16 3 -12 6 11 12 39 -5 30 -18 -12 -21 -12 -39 0
-35 7 3 11 10 10 16 -2 6 2 11 7 11 13 0 13 -17 0 -25 -5 -3 -10 -11 -10 -17
0 -6 9 -3 20 7 11 10 20 13 20 7 0 -7 -4 -12 -10 -12 -5 0 -10 -5 -10 -10 0
-13 32 -9 42 5 4 5 10 6 15 2 9 -10 -18 -28 -30 -20 -5 3 -6 -5 -3 -18 6 -20
5 -21 -4 -7 -11 17 -40 14 -40 -4 0 -6 7 -4 17 3 14 12 16 12 11 -1 -3 -8 -13
-14 -22 -14 -25 3 -19 -14 7 -18 15 -2 21 -9 20 -23 -1 -11 0 -14 3 -7 3 6 13
12 21 12 10 0 13 6 9 16 -4 10 -1 14 6 12 7 -3 13 -9 14 -14 0 -5 4 -17 9 -27
5 -13 11 -15 21 -6 7 6 17 8 21 6 5 -3 16 1 26 8 12 8 14 15 8 20 -6 3 -11 2
-11 -4 0 -8 -20 -8 -40 -1 -3 1 -8 2 -12 1 -5 0 -7 5 -5 12 1 6 -3 11 -10 10
-8 -2 -10 4 -6 15 6 15 5 15 -10 3 -9 -7 -17 -9 -17 -5 0 5 9 15 21 22 12 8
18 9 14 3 -3 -6 -1 -11 5 -11 6 0 8 -4 5 -10 -3 -5 -2 -10 4 -10 5 0 12 6 15
13 3 6 3 1 -1 -13 -5 -22 -4 -23 10 -11 9 7 14 17 11 22 -3 5 -2 14 1 19 8 13
35 -6 35 -23 0 -6 -7 -2 -16 9 -12 14 -14 15 -11 3 3 -9 0 -22 -6 -29 -9 -10
-7 -11 11 -5 14 4 22 2 22 -5 0 -6 6 -8 13 -4 10 6 10 4 0 -7 -18 -18 -16 -34
1 -20 11 9 20 9 34 2 11 -6 23 -7 27 -3 5 4 5 2 1 -5 -3 -6 -2 -14 3 -17 10
-7 26 31 23 52 -2 6 2 12 7 12 5 0 8 -11 5 -26 -4 -23 -3 -24 18 -14 21 10 21
10 6 -3 -10 -8 -15 -17 -12 -20 3 -3 -4 -11 -16 -17 -14 -7 -20 -8 -16 -2 4 7
-1 9 -14 7 -13 -3 -18 0 -14 7 5 7 2 8 -6 3 -9 -5 -11 -4 -6 3 4 7 2 12 -3 12
-6 0 -11 -5 -11 -11 0 -8 -4 -8 -12 -2 -7 6 -21 9 -31 8 -10 -2 -15 1 -11 8 4
7 1 6 -7 -2 -11 -10 -11 -15 -1 -18 6 -3 9 -10 5 -16 -4 -7 -1 -7 9 1 10 8 19
9 22 3 3 -5 0 -12 -6 -15 -7 -3 -3 -3 10 0 12 3 22 1 22 -5 0 -5 -8 -11 -17
-13 -15 -3 -14 -5 4 -10 19 -5 21 -2 17 24 -3 30 -3 30 17 13 14 -14 16 -20 7
-26 -7 -4 -9 -11 -5 -16 5 -4 11 -3 15 3 6 8 31 10 60 5 4 -1 0 -6 -8 -11 -8
-5 -10 -10 -5 -11 6 -1 21 -3 35 -5 14 -3 31 -5 38 -6 7 -1 11 -7 8 -13 -3 -8
6 -11 27 -9 24 3 28 1 19 -8 -7 -7 -12 -16 -12 -22 0 -5 7 -1 16 10 11 13 14
14 11 3 -3 -9 1 -16 8 -16 7 0 10 8 7 19 -2 10 -8 18 -12 18 -16 0 -3 34 18
48 19 12 20 12 15 -10 -4 -18 -3 -20 6 -8 7 10 11 11 11 3 0 -7 5 -13 11 -13
5 0 7 5 3 12 -5 8 -2 9 9 5 9 -3 19 -2 22 3 4 6 -2 10 -11 10 -10 0 -15 3 -11
6 3 4 14 4 23 0 13 -5 14 -9 4 -21 -8 -10 -9 -15 -2 -15 6 0 14 4 17 10 3 5
11 10 18 10 6 0 2 -7 -9 -16 -19 -15 -18 -15 3 -9 12 3 24 1 28 -5 4 -7 13 -7
27 1 18 9 19 9 10 -7 -10 -18 -62 -28 -62 -12 0 4 -5 8 -11 8 -5 0 -8 -4 -5
-8 3 -5 -1 -9 -9 -9 -10 0 -12 4 -5 12 8 9 6 14 -6 19 -24 9 -28 7 -15 -7 8
-10 7 -14 -4 -14 -8 0 -11 5 -8 10 3 6 1 7 -5 3 -5 -3 -12 -1 -14 5 -2 7 -8 7
-15 -3 -18 -22 0 -43 25 -29 13 7 23 7 27 2 5 -9 -32 -27 -47 -23 -5 1 -8 -2
-8 -7 0 -6 9 -9 20 -8 11 1 20 5 20 9 0 4 7 8 15 8 8 0 15 4 15 8 0 5 7 9 15
9 8 0 15 -4 15 -9 0 -4 -4 -8 -10 -8 -5 0 -10 -5 -10 -11 0 -8 5 -7 15 1 9 7
19 10 22 6 4 -4 1 -11 -7 -16 -11 -7 -11 -10 -2 -10 7 0 15 7 18 15 4 8 10 13
15 10 4 -3 6 -12 2 -21 -3 -9 0 -14 8 -12 8 2 13 -3 11 -12 -2 -8 0 -12 4 -8
4 4 13 0 21 -10 13 -15 13 -15 4 4 -9 18 -6 23 15 33 23 10 25 9 19 -9 -4 -13
-2 -20 6 -20 7 0 9 3 6 7 -9 8 25 33 36 26 5 -3 4 -8 -1 -12 -7 -4 -8 -12 -2
-21 8 -13 10 -12 10 3 0 20 11 22 28 5 8 -8 15 -8 27 2 15 12 16 11 13 -5 -4
-25 37 -28 58 -4 9 10 21 16 26 13 5 -3 0 -13 -11 -21 -12 -8 -21 -20 -21 -26
0 -7 5 -4 11 5 5 9 16 15 24 12 8 -4 12 -11 8 -18 -3 -6 5 -1 19 11 26 25 54
31 42 11 -6 -10 -5 -10 8 -1 15 13 28 8 28 -9 0 -5 -5 -6 -12 -2 -7 4 -8 3 -4
-5 17 -27 30 13 16 49 -2 3 -2 8 -2 12 1 3 -5 9 -14 12 -12 5 -12 2 -4 -15 11
-20 11 -20 -20 -4 -18 9 -30 13 -27 7 4 -5 0 -9 -8 -9 -8 0 -12 3 -10 7 2 3
-7 6 -20 6 -13 0 -21 -5 -19 -10 3 -6 -8 5 -25 24 -31 35 -40 35 -21 0 9 -16
7 -18 -10 -15 -11 2 -20 -1 -20 -6 0 -6 -5 -7 -11 -3 -8 4 -7 9 2 16 10 7 9 8
-6 3 -15 -5 -17 -3 -8 6 6 6 9 18 6 25 -3 8 0 14 7 14 6 0 9 -4 6 -9 -3 -4 1
-17 10 -27 15 -19 15 -19 10 1 -3 11 2 31 10 45 l15 25 -6 -25 c-6 -24 -5 -24
9 -6 9 11 16 15 16 9 0 -7 -5 -15 -10 -18 -6 -4 -7 -11 -4 -17 4 -7 9 -6 15 3
6 10 13 7 28 -12 23 -27 27 -20 9 14 -10 20 -10 21 5 8 10 -7 17 -21 17 -30 0
-13 2 -13 9 -2 7 11 9 11 13 0 3 -8 9 -10 14 -5 5 5 -1 15 -13 23 -25 17 -30
33 -11 33 6 0 8 -3 5 -7 -10 -9 29 -34 45 -28 7 3 19 1 27 -4 12 -8 12 -12 2
-25 -13 -16 -6 -21 22 -17 4 0 7 -4 7 -9 0 -6 -4 -10 -10 -10 -5 0 -10 -5 -10
-11 0 -8 5 -8 15 1 15 13 21 2 8 -16 -5 -5 -1 -1 9 8 27 29 41 21 19 -10 -15
-22 -17 -29 -6 -29 8 0 12 4 9 9 -3 4 0 8 6 8 6 0 9 4 5 9 -3 5 -1 12 4 16 6
3 8 11 5 19 -6 15 -34 17 -34 2 0 -6 -5 -3 -11 7 -6 10 -15 14 -22 10 -7 -4
-6 1 2 11 11 13 11 20 3 28 -7 7 -12 17 -12 22 0 6 12 -7 26 -27 14 -21 28
-36 31 -33 3 3 0 13 -8 22 -11 14 -11 18 -1 21 6 3 10 9 7 13 -3 5 -13 6 -23
3 -9 -3 -14 -3 -11 1 11 12 49 15 46 4 -1 -6 13 -12 32 -13 19 -1 37 -7 39
-13 6 -19 20 -14 27 9 4 11 9 18 12 16 2 -3 0 -15 -7 -26 -13 -25 -2 -28 16
-4 12 17 15 17 44 1 26 -15 45 -9 20 7 -5 3 -10 11 -10 18 0 6 6 2 14 -8 12
-16 16 -17 30 -6 9 7 17 10 17 5 6 -39 5 -55 -4 -61 -6 -3 -7 -1 -3 5 4 7 -1
10 -14 7 -11 -2 -18 0 -16 4 3 4 -1 8 -9 8 -8 0 -11 -5 -8 -10 3 -6 1 -7 -6
-3 -6 4 -9 12 -6 17 4 5 2 9 -4 9 -20 0 -21 -19 -2 -30 13 -6 18 -17 15 -28
-5 -15 -4 -15 8 -2 17 20 27 19 58 -3 21 -15 23 -19 10 -27 -9 -6 -10 -10 -3
-10 21 0 27 23 9 36 -16 12 -16 13 5 24 19 11 21 10 16 -4 -7 -18 11 -32 24
-19 5 5 11 18 13 29 4 21 -16 26 -42 10 -19 -11 -27 1 -13 18 9 11 8 15 -4 20
-8 3 -15 16 -14 28 1 22 1 22 9 -2 4 -14 8 -21 9 -15 1 5 8 -1 17 -13 8 -12
20 -22 25 -22 6 0 0 15 -12 32 -19 27 -20 30 -4 18 17 -14 18 -13 12 3 -4 11
-3 16 4 12 6 -4 8 -13 6 -20 -3 -6 3 -25 13 -40 10 -15 16 -35 13 -44 -3 -13
-2 -12 7 1 6 10 16 18 22 18 7 0 6 -5 -2 -15 -7 -8 -11 -15 -9 -16 37 -7 40
-7 29 6 -7 8 -7 15 -1 19 5 3 12 0 15 -6 3 -7 4 -4 3 6 -1 10 3 21 10 23 12 4
11 -24 -2 -50 -4 -6 5 3 20 21 14 17 31 32 37 32 7 0 1 -12 -13 -27 l-24 -28
30 27 c24 21 38 26 64 23 19 -3 41 1 49 8 13 10 14 8 9 -13 -4 -14 -4 -19 -1
-12 3 6 10 10 15 7 5 -4 6 2 2 12 -3 10 -3 15 2 11 20 -18 42 38 22 58 -3 4
-4 -3 -2 -15 2 -12 0 -19 -5 -16 -5 3 -7 17 -4 31 l5 26 -32 -23 c-27 -19 -29
-23 -15 -31 9 -5 20 -7 25 -3 5 3 12 1 16 -5 3 -5 1 -11 -4 -11 -26 -3 -30 -4
-37 -12 -11 -11 -34 -9 -34 4 0 5 4 8 9 4 5 -3 12 -1 15 4 4 5 2 12 -4 16 -6
4 -8 11 -5 16 4 5 1 9 -5 9 -7 0 -9 -7 -6 -16 4 -10 2 -13 -6 -8 -7 5 -8 3 -3
-6 6 -9 4 -11 -5 -5 -8 5 -11 4 -7 -2 4 -6 -7 -9 -28 -8 -21 2 -35 -2 -35 -9
0 -6 -5 -4 -10 4 -8 12 -10 12 -10 1 0 -10 -3 -11 -14 -2 -11 9 -15 9 -19 -1
-4 -10 -6 -10 -6 0 -1 6 -5 12 -11 12 -5 0 -9 -4 -7 -9 1 -5 -2 -9 -7 -9 -5 0
-13 -6 -18 -14 -8 -10 -9 -10 -5 2 2 8 -3 20 -11 26 -19 14 -7 35 15 27 11 -4
14 -3 9 5 -4 7 -2 12 4 12 7 0 9 -8 4 -22 -7 -23 -6 -23 15 -4 23 21 28 38 10
33 -6 -1 -14 5 -16 13 -4 13 -3 13 6 0 6 -8 11 -11 11 -5 0 5 5 4 12 -3 8 -8
8 -15 -2 -27 -7 -8 -10 -18 -7 -21 3 -3 15 8 28 25 12 17 27 27 32 24 6 -4 8
2 5 15 -5 19 -3 20 13 11 10 -5 19 -12 19 -15 0 -3 -4 -3 -9 0 -5 3 -12 -1
-15 -10 -3 -8 -10 -12 -16 -9 -5 3 -10 2 -10 -4 0 -5 5 -11 12 -13 14 -5 58
35 58 52 0 7 3 11 6 7 11 -10 -7 -47 -23 -47 -19 0 -9 -13 12 -16 8 -1 17 6
20 17 7 21 25 26 25 7 0 -18 13 0 17 23 2 13 -1 18 -9 13 -6 -4 -8 -3 -5 3 9
15 45 9 60 -10 11 -14 14 -14 32 -1 17 13 18 16 5 25 -13 9 -13 10 0 6 8 -2
15 -12 15 -22 0 -10 5 -20 12 -22 12 -4 11 26 -2 47 -3 6 -1 10 4 10 6 0 11
-6 11 -13 0 -7 9 -13 21 -14 17 -2 18 1 9 13 -9 10 -9 14 -1 14 6 0 11 -4 11
-10 0 -5 5 -10 11 -10 5 0 7 6 3 13 -6 10 -4 10 7 0 22 -21 34 -15 14 7 -10
11 -15 20 -11 20 4 0 17 -10 28 -23 15 -17 18 -18 14 -4 -5 15 -1 19 20 16 3
0 12 8 19 17 11 16 15 16 30 4 15 -13 19 -12 34 7 16 19 18 19 28 4 10 -15 13
-14 30 3 18 18 17 18 -4 11 -15 -4 -23 -2 -23 5 0 6 4 9 9 6 5 -3 11 2 13 12
5 19 38 27 38 9 0 -5 -7 -6 -16 -3 -9 4 -14 1 -12 -6 6 -17 36 -18 42 -1 4 9
1 22 -5 29 -8 10 -8 14 0 14 6 0 11 -5 11 -11 0 -5 4 -7 10 -4 5 3 7 0 4 -9
-4 -9 0 -14 10 -12 19 3 34 16 18 16 -16 0 -15 12 3 36 15 19 15 19 8 -1 -6
-17 -5 -18 9 -7 13 10 17 10 22 -4 8 -20 -12 -47 -27 -37 -6 4 -7 1 -2 -7 6
-9 4 -11 -5 -5 -9 6 -11 4 -5 -6 7 -11 6 -12 -6 -2 -12 10 -17 8 -27 -7 -7
-11 -20 -17 -32 -15 -11 2 -19 -1 -17 -8 1 -7 -4 -11 -11 -9 -8 1 -11 -1 -8
-6 6 -10 -24 -9 -41 1 -6 4 -14 3 -18 -3 -3 -5 1 -10 10 -10 9 0 13 -5 10 -10
-5 -8 -11 -7 -21 1 -8 6 -14 8 -14 3 0 -5 -5 -2 -11 6 -9 13 -10 12 -5 -3 4
-12 2 -16 -6 -11 -7 5 -8 3 -3 -6 6 -9 4 -11 -4 -5 -10 6 -11 3 -1 -15 l12
-22 15 21 c8 12 19 19 24 15 6 -3 3 -11 -7 -18 -9 -7 -14 -19 -11 -27 4 -11 6
-10 6 2 1 19 31 35 31 17 0 -6 3 -8 6 -5 4 4 1 13 -5 21 -8 10 -9 16 -1 21 5
3 10 1 10 -4 0 -6 5 -11 11 -11 8 0 8 5 -1 15 -17 21 -4 19 39 -6 34 -20 35
-20 11 -1 -14 11 -21 24 -17 29 5 4 13 1 18 -7 8 -11 8 -8 3 10 -6 23 -5 24
10 11 15 -13 19 -13 26 -1 5 8 6 18 3 23 -3 5 0 7 8 5 8 -3 13 -11 12 -17 -2
-6 2 -11 7 -11 6 0 10 5 10 11 0 5 5 7 10 4 8 -5 7 -12 -2 -23 -12 -15 -11
-16 5 -3 16 13 16 15 2 31 -10 11 -12 20 -7 24 6 3 12 0 15 -6 6 -18 82 27 81
47 -2 22 12 18 31 -7 l17 -23 -7 23 c-4 13 -2 22 4 22 6 0 11 -6 11 -14 0 -8
4 -18 10 -21 6 -4 7 2 1 17 -6 16 -16 22 -30 21 -19 -3 -20 0 -11 16 12 24 0
34 -17 16 -9 -10 -10 -14 -1 -17 7 -3 5 -7 -6 -11 -11 -4 -15 -3 -10 4 4 7 1
10 -6 7 -7 -2 -14 -12 -16 -22 -3 -23 -14 -34 -14 -15 0 12 -2 11 -11 -1 -8
-12 -9 -10 -4 9 5 16 4 21 -4 17 -7 -4 -9 -1 -5 8 7 17 32 29 45 20 5 -3 25 8
44 25 20 17 29 31 22 34 -7 2 -2 3 9 1 15 -3 23 2 27 16 3 11 11 20 19 20 10
0 9 -3 -2 -10 -12 -7 -13 -13 -3 -28 6 -10 8 -24 3 -31 -5 -10 -9 -9 -13 3 -4
9 -12 16 -18 16 -8 0 -9 -4 0 -13 13 -17 5 -27 -17 -20 -13 4 -14 3 -3 -5 7
-5 9 -12 5 -14 -5 -3 -4 -3 3 -2 7 2 15 -5 18 -16 5 -17 7 -17 31 5 15 14 29
24 33 23 18 -2 21 4 11 22 -6 11 -14 18 -19 16 -4 -3 -13 4 -20 16 -7 11 -8
17 -2 13 6 -3 11 -1 11 5 0 7 8 9 21 5 14 -5 19 -3 15 3 -3 6 1 18 10 27 9 9
14 19 11 22 -4 3 -2 14 4 25 7 14 14 16 22 9 7 -5 25 -8 40 -7 15 2 30 -1 34
-7 3 -6 1 -7 -5 -3 -6 3 -14 1 -18 -5 -4 -8 -9 -7 -15 2 -7 12 -9 12 -9 0 0
-11 -5 -10 -20 4 -25 22 -26 9 -2 -19 16 -20 16 -20 0 -7 -17 13 -26 2 -11
-13 4 -3 8 -14 9 -22 2 -13 -1 -13 -18 3 -12 10 -19 13 -16 8 9 -14 -18 -49
-27 -35 -3 5 -11 8 -16 4 -6 -3 2 -13 17 -20 27 -14 43 -7 44 19 0 5 5 5 10 2
6 -4 19 4 30 17 17 21 19 21 25 6 4 -10 12 -18 17 -18 6 0 5 7 -3 16 -11 13
-11 15 2 12 7 -1 14 2 14 7 0 5 -7 8 -14 7 -12 -3 -13 -1 -2 12 12 14 15 14
36 -2 13 -9 21 -20 18 -24 -2 -5 1 -8 6 -8 16 0 13 18 -4 27 -9 6 -11 13 -5
23 8 13 12 12 25 -5 9 -11 13 -14 9 -6 -4 8 -9 28 -11 45 -2 17 -4 37 -5 44
-2 20 -24 14 -25 -8 -1 -11 2 -18 7 -15 16 10 21 -15 6 -31 -19 -18 -22 -4 -3
16 10 12 9 12 -4 2 -12 -9 -18 -9 -27 0 -7 7 -12 8 -12 2 0 -5 -10 -11 -22
-11 -18 -2 -20 0 -8 7 10 7 11 10 3 10 -7 0 -13 5 -13 11 0 8 4 8 15 -1 11 -9
18 -9 35 3 11 7 17 17 14 20 -12 12 26 19 40 8 10 -9 17 -7 27 5 11 13 11 15
-2 14 -28 -4 -39 0 -39 17 0 15 2 14 15 -3 13 -17 14 -17 15 -1 0 21 13 22 30
2 7 -9 15 -13 18 -11 2 3 17 -1 33 -10 25 -13 28 -13 23 1 -3 8 -10 13 -14 10
-5 -3 -8 4 -7 15 1 11 7 20 14 20 7 0 13 6 13 13 0 8 4 7 10 -3 5 -8 10 -10
10 -5 0 6 -4 17 -10 25 -5 9 -5 19 1 26 7 8 6 14 -1 19 -6 3 -8 11 -5 16 4 5
1 9 -4 9 -6 0 -11 5 -11 12 0 6 9 3 20 -7 20 -19 28 -9 10 13 -7 9 -7 9 2 2
26 -22 28 -8 2 27 l-26 38 28 -33 c16 -18 33 -30 36 -26 4 3 0 13 -8 22 -14
14 -14 17 5 31 18 14 19 19 9 30 -9 10 -9 12 -1 7 7 -4 18 5 27 21 8 15 15 23
16 17 0 -5 -6 -19 -14 -29 -8 -11 -12 -25 -9 -32 3 -7 0 -13 -7 -13 -6 0 -8
-5 -5 -10 8 -13 36 7 34 24 -3 23 1 36 12 36 8 0 8 -5 -1 -15 -9 -11 -9 -15
-1 -15 7 0 10 -4 6 -9 -3 -5 2 -17 11 -25 8 -9 11 -16 5 -16 -5 0 -15 8 -20
17 -6 10 -11 13 -11 6 0 -6 -8 -14 -18 -17 -10 -4 -19 -13 -19 -21 0 -14 5
-17 23 -14 14 2 23 -26 11 -33 -16 -10 -29 -10 -23 1 3 5 -2 15 -11 22 -14 12
-16 12 -8 0 6 -10 4 -12 -5 -6 -9 6 -11 4 -5 -5 6 -9 4 -11 -5 -5 -9 6 -11 4
-5 -5 6 -9 4 -11 -5 -5 -9 6 -11 4 -5 -5 6 -9 4 -11 -6 -5 -11 7 -11 5 1 -10
12 -15 12 -17 1 -10 -10 6 -12 4 -6 -5 6 -9 4 -11 -5 -5 -9 5 -11 4 -6 -4 4
-6 12 -9 17 -5 6 3 7 -4 4 -19 -4 -14 -3 -27 2 -30 5 -3 9 4 9 16 -1 14 4 21
14 19 11 -2 10 1 -3 12 -14 11 -15 16 -6 22 8 4 15 2 17 -5 3 -8 9 -5 19 9 8
12 21 19 27 17 20 -8 15 26 -7 50 -24 26 -12 31 15 7 14 -14 20 -14 33 -4 11
9 12 16 5 25 -5 6 -6 16 -2 20 4 5 2 5 -5 1 -6 -3 -14 -2 -17 3 -3 5 1 12 10
15 11 4 18 -1 21 -14 3 -11 9 -20 14 -20 5 0 6 7 3 15 -5 11 -1 14 12 9 18 -5
18 -5 2 9 -17 13 -17 15 3 33 17 15 22 16 29 4 5 -8 7 -17 5 -20 -2 -4 2 -7
10 -7 11 0 10 5 -2 24 -17 26 -24 28 -42 11 -11 -11 -12 -9 -6 9 5 18 3 22 -9
17 -8 -3 -12 -13 -9 -22 4 -14 3 -15 -5 -2 -6 8 -8 18 -5 24 4 5 -1 7 -12 2
-16 -6 -16 -4 -4 11 12 15 12 16 -3 10 -10 -3 -18 -2 -18 3 0 16 30 11 36 -5
4 -8 10 -15 15 -15 6 0 5 8 -1 19 -5 11 -10 23 -10 28 1 4 7 -3 14 -16 11 -19
14 -21 19 -7 4 9 2 16 -3 16 -6 0 -10 5 -10 11 0 5 4 8 9 5 5 -3 15 2 22 11
12 14 11 15 -6 10 -11 -4 -27 -2 -35 4 -13 9 -13 10 0 8 27 -3 41 1 36 9 -3 5
1 9 8 9 9 0 12 -7 9 -16 -5 -12 -3 -13 6 -5 7 6 13 23 14 37 3 39 21 37 23 -2
1 -23 -1 -29 -7 -20 -7 10 -8 5 -5 -14 4 -25 3 -27 -11 -15 -14 11 -16 11 -8
-1 6 -10 4 -12 -5 -6 -9 6 -11 4 -5 -5 5 -9 4 -11 -4 -6 -6 4 -10 4 -9 -1 1
-4 -3 -18 -10 -31 -11 -19 -10 -23 5 -29 10 -3 22 -8 27 -11 5 -3 6 0 2 6 -4
7 -14 12 -21 12 -9 0 -12 6 -8 17 4 9 8 12 10 6 2 -6 15 0 29 14 13 13 21 29
18 35 -4 6 1 8 14 4 21 -7 38 17 26 36 -3 5 4 20 15 32 12 13 21 29 19 36 -2
7 3 15 11 18 9 3 11 0 6 -8 -6 -9 -4 -11 5 -5 10 6 10 11 -3 20 -9 7 -14 15
-10 18 3 4 12 2 20 -4 9 -9 13 -8 13 0 0 6 -3 11 -7 12 -5 0 -16 2 -26 4 -10
2 -14 -1 -11 -7 5 -7 2 -8 -6 -3 -9 6 -11 4 -5 -5 6 -9 4 -11 -5 -5 -9 6 -11
4 -5 -5 6 -9 4 -11 -5 -5 -8 5 -11 4 -7 -2 4 -6 -1 -10 -10 -9 -9 0 -18 -6
-21 -14 -4 -12 -3 -13 10 -2 13 10 17 10 21 -1 3 -9 -2 -13 -16 -11 -12 1 -25
3 -30 3 -12 2 17 41 30 41 7 0 13 5 13 11 0 5 -6 7 -12 3 -7 -4 -5 2 5 13 9
11 14 23 10 26 -3 4 -1 7 5 7 15 0 15 -13 0 -28 -7 -7 -8 -12 -2 -12 6 0 19 8
28 19 15 16 15 19 1 24 -8 4 -15 12 -14 19 0 10 2 10 6 0 2 -6 9 -10 14 -6 5
3 9 0 9 -6 0 -7 6 -10 14 -7 18 7 40 -18 30 -35 -5 -10 -4 -10 6 -1 11 10 11
15 -1 29 -13 16 -12 17 6 11 19 -7 19 -6 2 7 -10 8 -18 18 -18 23 0 4 -6 7
-14 5 -8 -2 -13 5 -12 18 1 11 5 20 10 20 5 0 7 -6 4 -14 -4 -9 2 -12 21 -10
15 1 28 8 30 13 2 6 8 9 12 6 5 -3 12 0 16 6 4 7 3 9 -3 6 -12 -7 -33 14 -37
35 -1 7 -6 19 -10 27 -5 8 -5 12 0 9 10 -5 55 38 47 46 -3 2 -11 2 -19 -1 -8
-3 -14 1 -14 8 0 7 3 9 7 6 3 -4 13 -1 22 5 9 7 13 8 9 4 -4 -5 -3 -15 3 -22
9 -10 7 -15 -4 -20 -13 -5 -14 -9 -4 -25 6 -10 16 -19 21 -19 4 0 3 7 -4 15
-10 11 -10 19 -2 27 6 6 8 17 5 24 -3 9 0 12 9 9 7 -3 22 2 33 10 20 16 19 16
-2 6 -16 -8 -28 -7 -50 4 -20 11 -23 15 -10 15 12 0 16 4 11 13 -5 7 0 6 11
-3 17 -14 18 -13 12 3 -5 12 -3 16 5 11 8 -5 9 -2 5 9 -7 19 8 32 19 16 5 -8
3 -9 -7 -4 -12 8 -12 6 0 -9 11 -13 17 -14 25 -5 8 8 8 13 -1 16 -7 3 -13 14
-13 26 0 18 -2 19 -10 7 -6 -9 -10 -10 -10 -3 0 6 5 15 10 18 8 5 7 12 -2 22
-12 15 -11 15 10 2 12 -8 22 -17 22 -22 0 -4 -5 -5 -11 -1 -8 4 -8 0 0 -15 7
-11 14 -21 17 -21 3 0 2 4 -1 10 -3 5 -1 18 5 29 7 14 7 22 -2 27 -7 5 -8 3
-3 -7 5 -8 -1 -5 -13 5 -24 20 -31 36 -9 17 14 -11 27 -5 27 11 0 5 -6 6 -12
2 -10 -6 -10 -5 -1 8 7 8 10 18 6 21 -3 4 -1 7 6 7 8 0 11 -6 7 -16 -3 -8 -2
-12 4 -9 13 8 13 -8 -1 -22 -7 -7 -6 -12 4 -16 21 -8 13 59 -9 85 -10 11 -14
19 -9 18 26 -5 37 1 33 18 -3 11 0 19 8 19 7 0 12 -5 11 -10 -1 -5 5 -12 13
-14 13 -4 13 -3 0 6 -11 8 -11 11 -2 11 10 0 10 3 0 14 -7 8 -17 11 -22 8 -5
-3 -6 0 -2 7 4 6 11 9 16 6 4 -3 11 3 14 12 4 9 1 20 -6 24 -10 6 -10 11 -1
20 10 10 14 7 22 -12 6 -16 10 -18 10 -7 1 9 4 18 9 21 4 2 1 2 -7 0 -8 -2
-11 2 -7 12 3 8 2 14 -2 12 -7 -2 -12 6 -12 19 0 4 12 -2 28 -11 26 -18 27
-18 11 1 -9 10 -19 27 -22 37 -6 15 -4 16 14 6 15 -8 19 -8 15 0 -4 6 -4 17 1
23 11 19 13 68 2 68 -6 0 -5 8 1 20 6 11 8 25 5 30 -5 9 2 18 40 45 12 9 14
13 4 10 -24 -9 -43 19 -24 35 9 7 15 8 15 2 0 -6 -6 -13 -12 -15 -10 -4 -10
-6 -1 -6 18 -1 26 18 13 34 -9 10 -7 16 7 24 15 9 15 10 2 11 -9 0 -16 7 -16
14 0 12 5 13 21 4 20 -10 19 -9 -2 14 -19 21 -20 26 -8 31 9 4 13 15 11 29 -3
12 1 26 8 30 9 6 8 10 -3 18 -14 9 -8 14 15 11 6 -1 1 6 -9 14 -17 13 -18 15
-3 15 21 0 21 8 0 32 -16 18 -16 18 3 12 17 -7 18 -6 4 11 -9 11 -10 16 -2 11
6 -4 12 -3 12 3 0 5 -8 15 -17 20 -17 10 -17 10 -1 11 12 0 15 5 11 17 -5 12
-3 14 8 9 8 -4 5 0 -5 8 -11 9 -14 16 -8 16 7 0 12 5 12 11 0 5 -4 8 -8 5 -4
-2 -8 4 -8 15 0 10 6 19 14 19 7 0 10 5 7 10 -4 6 -9 8 -13 6 -4 -2 -6 18 -5
45 1 32 -2 49 -10 49 -7 0 -6 4 3 10 13 9 13 11 0 20 -13 9 -13 10 0 10 12 0
12 2 1 9 -8 5 -9 11 -3 15 7 4 6 14 -1 30 -7 13 -16 22 -21 19 -5 -4 -6 -1 -2
6 4 6 12 8 18 5 7 -4 7 0 -1 13 -7 14 -7 23 0 30 8 8 7 13 -2 18 -8 5 -10 4
-5 -3 4 -7 2 -12 -4 -12 -7 0 -9 12 -6 30 2 17 1 30 -4 30 -4 0 -6 9 -3 20 3
13 0 20 -8 20 -10 0 -10 3 -1 12 9 9 7 17 -9 34 -15 16 -17 24 -8 29 8 6 10 4
4 -5 -6 -9 -4 -11 4 -6 9 6 8 13 -5 27 -9 10 -14 25 -10 34 3 9 2 13 -3 10 -5
-3 -12 -1 -16 5 -3 5 0 10 7 10 10 0 10 2 0 8 -7 5 -14 22 -15 39 -1 17 -4 30
-7 28 -3 -2 -13 13 -23 32 -11 22 -13 32 -5 27 7 -4 5 2 -5 14 -11 11 -16 26
-12 31 3 6 1 11 -5 11 -6 0 -10 8 -8 17 2 10 -2 18 -9 18 -6 0 -15 4 -20 9 -5
5 -3 6 5 2 6 -4 12 -2 12 3 0 6 -4 11 -10 11 -5 0 -10 9 -10 20 0 11 -4 20
-10 20 -5 0 -10 9 -10 20 0 11 -4 20 -10 20 -5 0 -14 10 -21 21 -9 17 -8 20 3
13 11 -6 11 -5 -1 9 -7 9 -16 15 -20 13 -6 -4 -9 9 -13 66 -1 15 -6 24 -11 21
-5 -3 -7 0 -5 8 3 8 1 22 -4 32 -6 11 -5 17 3 17 8 0 9 4 0 13 -6 8 -8 17 -4
20 3 4 1 7 -5 7 -7 0 -12 5 -12 11 0 5 6 7 13 3 6 -4 3 3 -8 16 -11 13 -14 20
-7 16 6 -4 12 -3 12 2 0 6 -6 12 -13 15 -8 3 -13 16 -12 29 1 12 -5 32 -14 42
-11 13 -11 17 -2 11 9 -5 12 -3 9 6 -3 8 -10 13 -15 12 -6 -1 -10 6 -10 15 0
33 -3 43 -11 38 -5 -3 -8 5 -7 17 1 12 -1 24 -4 27 -11 9 -56 104 -53 112 1 4
-2 8 -8 8 -5 0 -10 7 -10 15 0 9 -7 18 -15 21 -8 4 -12 10 -9 15 3 5 0 9 -5 9
-6 0 -11 9 -11 21 0 11 -4 17 -10 14 -5 -3 -10 1 -10 9 0 9 -4 16 -10 16 -5 0
-10 7 -10 16 0 8 -4 12 -10 9 -5 -3 -10 3 -10 14 0 13 -7 21 -16 21 -9 0 -14
5 -12 11 2 6 -22 38 -54 69 -32 32 -58 64 -58 71 0 7 -3 10 -6 6 -3 -3 -25 15
-49 39 -24 24 -49 44 -55 44 -6 0 -8 5 -5 10 3 6 0 10 -9 10 -8 0 -16 3 -18 8
-4 10 -98 85 -98 78 0 -6 -28 15 -55 41 -7 7 -15 9 -19 6 -3 -4 -6 -2 -6 3 0
6 -18 18 -40 28 -22 10 -40 22 -40 27 0 6 -4 7 -10 4 -5 -3 -10 -1 -10 5 0 6
-4 8 -10 5 -5 -3 -10 -1 -10 5 0 6 -4 9 -9 6 -5 -3 -12 1 -15 10 -4 9 -13 14
-21 10 -9 -3 -18 0 -21 7 -2 7 -14 14 -27 14 -12 1 -23 7 -25 13 -2 5 -12 10
-23 10 -10 0 -19 4 -19 10 0 5 -3 9 -7 9 -22 -4 -44 2 -39 10 3 5 -6 9 -21 9
-15 0 -29 5 -31 11 -2 6 -17 11 -33 11 -16 0 -29 5 -29 10 0 6 -14 10 -31 10
-16 0 -28 4 -25 8 4 7 -10 11 -51 14 -7 1 -13 4 -13 8 0 3 -8 6 -17 7 -45 2
-73 8 -73 15 0 4 -9 7 -20 7 -11 1 -29 1 -40 2 -11 0 -18 4 -15 9 3 5 0 12 -6
16 -8 4 -9 3 -5 -4 5 -8 0 -12 -13 -12 -11 0 -22 4 -25 8 -2 4 -17 7 -33 6
-15 -1 -34 4 -42 10 -11 8 -13 8 -7 -1 10 -18 1 -16 -18 3 -9 8 -16 11 -16 5
0 -6 -5 -11 -11 -11 -5 0 -8 4 -5 8 3 5 -1 9 -9 9 -8 0 -12 -4 -9 -9 3 -4 0
-8 -5 -8 -6 0 -11 4 -11 8 0 5 -7 9 -15 9 -8 0 -15 -5 -15 -11 0 -6 -5 -4 -10
4 -5 8 -10 11 -10 6 0 -6 -6 -2 -13 9 -11 14 -16 15 -22 5 -6 -9 -4 -11 5 -5
8 5 11 4 6 -3 -4 -6 -13 -9 -21 -6 -8 4 -13 9 -11 13 2 3 -22 6 -55 7 -32 0
-53 -3 -46 -8 6 -4 8 -8 2 -8 -5 0 -17 4 -25 10 -9 6 -20 5 -29 -3 -12 -9 -13
-9 -7 1 8 13 -6 17 -18 5 -9 -9 -37 -13 -32 -4 9 14 -90 6 -122 -10z m53 1 c3
-5 1 -10 -4 -10 -6 0 -11 5 -11 10 0 6 2 10 4 10 3 0 8 -4 11 -10z m255 4 c0
-8 -19 -13 -24 -6 -3 5 1 9 9 9 8 0 15 -2 15 -3z m-2315 -2144 c3 -5 -1 -10
-10 -10 -9 0 -13 5 -10 10 3 6 8 10 10 10 2 0 7 -4 10 -10z m-26 -121 c-5 -11
-9 -29 -7 -41 2 -12 -3 -23 -12 -25 -13 -4 -13 -3 0 6 12 8 12 11 1 11 -9 0
-11 6 -6 18 4 9 9 26 10 37 2 11 4 21 4 23 1 2 6 0 11 -3 7 -4 6 -13 -1 -26z
m1 -123 c0 -12 -5 -7 -19 24 -11 24 -11 24 3 6 9 -11 16 -24 16 -30z m-27 -84
c-10 -7 -17 -16 -16 -20 0 -4 -3 -6 -8 -4 -5 1 -9 -5 -9 -14 0 -9 5 -12 12 -8
7 4 8 3 4 -5 -4 -6 -12 -8 -18 -5 -7 4 -8 2 -4 -4 4 -6 13 -9 21 -6 9 4 13 -1
12 -14 0 -12 -5 -18 -9 -16 -4 3 -8 0 -8 -6 0 -6 -4 -8 -10 -5 -5 3 -10 2 -10
-4 0 -5 10 -13 21 -16 16 -5 18 -9 9 -15 -7 -4 -12 -20 -12 -34 0 -17 -5 -25
-13 -23 -6 3 -12 -1 -12 -8 0 -7 6 -11 14 -8 7 3 13 0 13 -7 0 -6 4 -9 9 -6
16 10 6 -22 -14 -45 -20 -21 -20 -21 0 -18 15 3 19 -2 20 -21 0 -26 -5 -27
-40 -14 -18 7 -18 6 -6 -9 11 -14 11 -20 0 -34 -12 -15 -12 -16 3 -11 9 4 24
0 35 -7 10 -8 14 -15 8 -15 -5 0 1 -7 15 -15 14 -8 19 -14 12 -15 -7 0 -24 11
-37 25 -14 13 -26 22 -26 20 -6 -21 -1 -32 21 -41 23 -11 22 -11 -14 -8 -37 3
-64 14 -35 14 11 0 11 2 -1 10 -9 6 -10 10 -3 10 6 0 11 9 10 20 -1 11 -5 20
-10 20 -5 0 -4 7 3 15 10 12 10 15 -1 16 -11 0 -11 2 -1 6 10 4 10 8 0 21 -10
12 -10 16 -1 19 7 3 14 3 15 1 2 -2 10 3 19 11 13 13 12 18 -13 44 l-27 30 19
27 c14 19 16 30 8 38 -8 8 -3 18 16 36 22 19 23 23 8 19 -15 -4 -19 0 -18 21
1 13 9 33 19 44 9 10 14 21 11 25 -3 3 4 5 15 4 21 -1 21 -2 4 -15z m14 -29
c-4 -3 -2 -12 5 -20 8 -11 7 -12 -6 -7 -9 3 -16 9 -16 13 0 9 11 21 18 21 3 0
2 -3 -1 -7z m0 -89 c-3 -3 -12 -4 -19 -1 -8 3 -5 6 6 6 11 1 17 -2 13 -5z m13
-27 c0 -2 -9 -12 -20 -22 -24 -21 -27 -14 -4 9 15 15 24 20 24 13z m-17 -122
c-3 -9 -8 -14 -10 -11 -3 3 -2 9 2 15 9 16 15 13 8 -4z m25 -50 c-3 -3 -9 2
-12 12 -6 14 -5 15 5 6 7 -7 10 -15 7 -18z m-21 -60 c0 -8 -4 -12 -9 -9 -4 3
-8 9 -8 15 0 5 4 9 8 9 5 0 9 -7 9 -15z m43 11 c0 -3 -4 -8 -10 -11 -5 -3 -10
-1 -10 4 0 6 5 11 10 11 6 0 10 -2 10 -4z m-34 -88 c4 -7 3 -8 -4 -4 -7 4 -12
2 -12 -5 0 -7 -3 -10 -6 -6 -6 5 3 27 11 27 2 0 7 -5 11 -12z m44 -12 c0 -2
-8 -10 -17 -17 -16 -13 -17 -12 -4 4 13 16 21 21 21 13z m-39 -53 c13 -16 12
-17 -3 -4 -17 13 -22 21 -14 21 2 0 10 -8 17 -17z m4354 -10 c0 -15 -7 -28
-15 -31 -13 -3 -12 -2 0 7 13 10 13 11 0 11 -13 0 -13 1 0 10 8 5 11 10 7 10
-5 0 -5 5 -2 10 10 16 12 12 10 -17z m-4308 -8 c0 -8 -4 -12 -9 -9 -5 3 -6 10
-3 15 9 13 12 11 12 -6z m-137 -1 c0 -8 -19 -13 -24 -6 -3 5 1 9 9 9 8 0 15
-2 15 -3z m77 0 c-3 -3 -12 -4 -19 -1 -8 3 -5 6 6 6 11 1 17 -2 13 -5z m38
-22 c-3 -3 -11 0 -18 7 -9 10 -8 11 6 5 10 -3 15 -9 12 -12z m-36 -42 c11 -24
11 -24 -3 -6 -9 11 -16 24 -16 30 0 12 5 7 19 -24z m26 -30 c-3 -5 -12 -10
-18 -10 -7 0 -6 4 3 10 19 12 23 12 15 0z m-22 -33 c3 -8 -1 -14 -9 -14 -15 0
-18 9 -7 20 9 9 10 9 16 -6z m32 -34 c-1 -10 3 -24 9 -32 9 -12 8 -12 -12 0
-12 8 -18 15 -13 17 6 2 7 10 4 18 -3 8 -1 14 5 14 6 0 9 -8 7 -17z m3 -82
c-7 -11 -16 -17 -20 -15 -5 3 -11 -2 -14 -10 -3 -9 -10 -14 -14 -11 -4 3 -11
-2 -14 -11 -5 -13 -9 -14 -21 -4 -8 7 -12 17 -8 24 3 6 2 7 -3 3 -5 -5 -9 -14
-9 -19 0 -6 -5 -13 -12 -15 -6 -2 -10 3 -8 14 2 10 4 22 4 26 1 5 5 6 10 2 5
-3 12 -1 16 5 10 16 28 12 21 -5 -8 -21 4 -19 44 10 43 30 43 30 28 6z m82 5
c0 -2 -8 -10 -17 -17 -16 -13 -17 -12 -4 4 13 16 21 21 21 13z m-56 -54 c3 -5
-1 -9 -9 -9 -8 0 -15 4 -15 9 0 4 4 8 9 8 6 0 12 -4 15 -8z m-74 -17 c-15 -18
1 -20 18 -3 9 9 12 9 12 0 0 -7 -6 -12 -12 -12 -10 0 -9 -3 1 -9 11 -7 9 -10
-9 -16 -15 -5 -19 -10 -10 -15 8 -5 7 -9 -6 -14 -10 -4 -15 -4 -11 0 4 4 -3
19 -15 32 -13 14 -18 22 -12 19 6 -4 19 2 29 13 21 23 33 27 15 5z m170 -25
c0 -5 -2 -10 -4 -10 -3 0 -8 5 -11 10 -3 6 -1 10 4 10 6 0 11 -4 11 -10z
m-120 -20 c0 -5 -8 -10 -17 -10 -15 0 -16 2 -3 10 19 12 20 12 20 0z m85 0 c3
-6 -1 -7 -9 -4 -18 7 -21 14 -7 14 6 0 13 -4 16 -10z m-68 -22 c-3 -8 -6 -5
-6 6 -1 11 2 17 5 13 3 -3 4 -12 1 -19z m47 4 c3 -5 -1 -9 -9 -9 -8 0 -12 4
-9 9 3 4 7 8 9 8 2 0 6 -4 9 -8z m26 -16 c0 -2 -8 -10 -17 -17 -16 -13 -17
-12 -4 4 13 16 21 21 21 13z m-73 -28 c-3 -8 -6 -5 -6 6 -1 11 2 17 5 13 3 -3
4 -12 1 -19z m36 3 c3 -13 1 -18 -9 -14 -7 2 -10 11 -7 19 7 19 10 18 16 -5z
m4090 -6 c-3 -9 -8 -14 -10 -11 -3 3 -2 9 2 15 9 16 15 13 8 -4z m-4042 -32
c13 -16 12 -17 -3 -4 -10 7 -18 15 -18 17 0 8 8 3 21 -13z m52 2 c-3 -9 -8
-14 -10 -11 -3 3 -2 9 2 15 9 16 15 13 8 -4z m-80 -13 c15 -17 15 -18 -6 -19
-17 -2 -19 0 -7 7 14 9 7 14 -13 11 -5 -1 -6 3 -2 9 8 13 9 13 28 -8z m-38
-23 c11 -16 1 -19 -13 -3 -7 8 -8 14 -3 14 5 0 13 -5 16 -11z m105 -10 c0 -5
-4 -9 -8 -9 -5 0 -9 7 -9 15 0 8 4 12 9 9 4 -3 8 -9 8 -15z m115 1 c3 -5 1
-10 -4 -10 -6 0 -11 5 -11 10 0 6 2 10 4 10 3 0 8 -4 11 -10z m-182 -33 c-5
-8 -8 -7 -11 1 -2 7 -9 9 -14 6 -7 -4 -8 -2 -4 4 4 6 13 9 21 6 8 -4 12 -11 8
-17z m87 -1 c0 -3 -4 -8 -10 -11 -5 -3 -10 -1 -10 4 0 6 5 11 10 11 6 0 10 -2
10 -4z m-80 -26 c0 -5 -4 -10 -10 -10 -5 0 -10 5 -10 10 0 6 5 10 10 10 6 0
10 -4 10 -10z m58 -25 c-3 -3 -9 2 -12 12 -6 14 -5 15 5 6 7 -7 10 -15 7 -18z
m35 10 c-3 -9 -8 -14 -10 -11 -3 3 -2 9 2 15 9 16 15 13 8 -4z m-63 -29 c-7
-7 -14 -6 -22 3 -11 10 -9 11 7 5 18 -7 19 -6 5 12 -14 18 -14 18 3 5 12 -10
15 -17 7 -25z m3927 9 c0 -8 -4 -12 -9 -9 -5 3 -6 10 -3 15 9 13 12 11 12 -6z
m-3963 -11 c3 -8 2 -12 -4 -9 -6 3 -10 10 -10 16 0 14 7 11 14 -7z m201 7 c3
-5 2 -12 -3 -15 -5 -3 -9 1 -9 9 0 17 3 19 12 6z m-138 -16 c0 -8 -5 -11 -10
-8 -7 4 -8 -1 -3 -12 5 -15 4 -16 -9 -5 -14 11 -13 14 2 26 10 7 18 14 19 14
0 0 1 -7 1 -15z m44 -2 c13 -16 12 -17 -3 -4 -10 7 -18 15 -18 17 0 8 8 3 21
-13z m3833 -9 c3 -8 2 -12 -4 -9 -6 3 -10 10 -10 16 0 14 7 11 14 -7z m64 -8
c10 -6 10 -11 1 -22 -12 -15 -33 -9 -24 7 4 5 1 9 -4 9 -6 0 -11 4 -11 9 0 11
19 9 38 -3z m-3878 -50 c-7 -7 -13 -7 -20 0 -6 6 -3 10 10 10 13 0 16 -4 10
-10z m-80 -6 c0 -5 -2 -10 -4 -10 -3 0 -8 5 -11 10 -3 6 -1 10 4 10 6 0 11 -4
11 -10z m3927 -13 c0 -8 -6 -14 -14 -14 -17 0 -17 14 0 20 6 3 12 6 13 6 0 1
1 -5 1 -12z m-3763 -15 c3 -5 -1 -9 -9 -9 -8 0 -15 4 -15 9 0 4 4 8 9 8 6 0
12 -4 15 -8z m90 -8 c3 -8 2 -12 -4 -9 -6 3 -10 10 -10 16 0 14 7 11 14 -7z
m-158 -9 c-1 -8 -5 -17 -8 -21 -5 -4 -4 16 1 34 3 9 9 -1 7 -13z m-22 -31 c3
-8 2 -12 -4 -9 -6 3 -10 10 -10 16 0 14 7 11 14 -7z m129 4 c-4 -7 -8 -23 -9
-36 0 -12 -4 -25 -7 -28 -3 -3 -5 7 -3 23 2 28 12 53 22 53 3 0 2 -6 -3 -12z
m-123 -38 c0 -5 -4 -10 -10 -10 -5 0 -10 5 -10 10 0 6 5 10 10 10 6 0 10 -4
10 -10z m71 -7 c13 -16 12 -17 -3 -4 -17 13 -22 21 -14 21 2 0 10 -8 17 -17z
m205 5 c3 -4 -1 -5 -10 -4 -8 1 -18 5 -22 8 -3 4 1 5 10 4 8 -1 18 -5 22 -8z
m3515 -1 c-6 -8 -8 -17 -4 -21 4 -3 -6 -19 -21 -35 -18 -19 -23 -30 -15 -33 8
-3 9 -9 4 -18 -7 -11 -10 -10 -15 6 -9 24 3 59 21 59 8 1 13 7 11 14 -3 13 15
41 25 41 3 0 0 -6 -6 -13z m-3740 -24 c13 -16 12 -17 -3 -4 -10 7 -18 15 -18
17 0 8 8 3 21 -13z m145 -7 c1 -7 -4 -13 -12 -13 -9 0 -11 4 -4 12 5 7 8 15 5
18 -3 4 -2 5 2 2 4 -3 8 -11 9 -19z m39 6 c-3 -3 -11 0 -18 7 -9 10 -8 11 6 5
10 -3 15 -9 12 -12z m3460 -1 c3 -6 -5 -15 -17 -21 -21 -10 -21 -10 -6 3 10 8
15 17 11 20 -3 4 -4 7 0 7 3 0 8 -4 12 -9z m-3645 -26 c5 3 11 1 14 -4 4 -5 0
-8 -6 -7 -21 3 -38 16 -38 29 0 7 5 4 11 -6 6 -9 14 -15 19 -12z m228 -10 c-3
-3 -9 2 -12 12 -6 14 -5 15 5 6 7 -7 10 -15 7 -18z m37 16 c3 -5 2 -12 -3 -15
-5 -3 -9 1 -9 9 0 17 3 19 12 6z m3322 -16 c0 -8 -4 -12 -9 -9 -5 3 -6 10 -3
15 9 13 12 11 12 -6z m-3567 -48 c13 4 13 3 0 -6 -11 -8 -18 -6 -27 6 -7 9
-13 22 -13 27 1 6 6 2 13 -10 7 -12 19 -19 27 -17z m115 13 c-3 -5 -12 -10
-18 -10 -7 0 -6 4 3 10 19 12 23 12 15 0z m-68 -30 c-6 -8 -12 -16 -13 -18 -1
-1 -4 5 -6 15 -4 13 0 19 13 19 14 0 16 -3 6 -16z m49 -12 c4 -7 3 -8 -5 -4
-6 4 -20 2 -29 -6 -15 -12 -16 -11 -3 5 16 20 27 22 37 5z m34 8 c0 -3 -4 -8
-10 -11 -5 -3 -10 -1 -10 4 0 6 5 11 10 11 6 0 10 -2 10 -4z m213 -21 c-7 -21
-12 -19 -10 4 0 11 5 18 9 15 4 -3 5 -11 1 -19z m-338 5 c3 -5 1 -10 -4 -10
-6 0 -11 5 -11 10 0 6 2 10 4 10 3 0 8 -4 11 -10z m3486 -7 c13 -16 12 -17 -3
-4 -10 7 -18 15 -18 17 0 8 8 3 21 -13z m149 13 c0 -2 -8 -10 -17 -17 -16 -13
-17 -12 -4 4 13 16 21 21 21 13z m-3615 -26 c-3 -5 -12 -10 -18 -10 -7 0 -6 4
3 10 19 12 23 12 15 0z m30 -10 c-3 -5 -12 -10 -18 -10 -7 0 -6 4 3 10 19 12
23 12 15 0z m170 -8 c-3 -3 -11 0 -18 7 -9 10 -8 11 6 5 10 -3 15 -9 12 -12z
m185 8 c0 -5 -5 -10 -11 -10 -5 0 -7 5 -4 10 3 6 8 10 11 10 2 0 4 -4 4 -10z
m-472 -31 c-26 -17 -40 -11 -28 12 9 16 14 18 26 8 12 -10 12 -14 2 -20z m227
22 c3 -5 2 -12 -3 -15 -5 -3 -9 1 -9 9 0 17 3 19 12 6z m-135 -26 c0 -20 -32
-43 -37 -27 -3 6 -10 9 -15 6 -11 -7 -4 9 14 33 11 14 38 6 38 -12z m35 15
c-3 -5 2 -11 12 -11 17 -1 17 -2 0 -6 -9 -2 -14 -9 -11 -15 4 -6 2 -8 -4 -5
-5 4 -9 15 -7 25 5 23 4 22 11 22 3 0 2 -4 -1 -10z m3440 0 c3 -6 -1 -7 -9 -4
-18 7 -21 14 -7 14 6 0 13 -4 16 -10z m-3380 -30 c10 -11 16 -20 13 -20 -3 0
-13 9 -23 20 -10 11 -16 20 -13 20 3 0 13 -9 23 -20z m75 14 c0 -8 -19 -13
-24 -6 -3 5 1 9 9 9 8 0 15 -2 15 -3z m60 0 c0 -8 -19 -13 -24 -6 -3 5 1 9 9
9 8 0 15 -2 15 -3z m54 -2 c3 -5 -1 -9 -9 -9 -8 0 -12 4 -9 9 3 4 7 8 9 8 2 0
6 -4 9 -8z m30 -8 c3 -8 2 -12 -4 -9 -6 3 -10 10 -10 16 0 14 7 11 14 -7z
m3193 -10 c3 -8 12 -13 21 -9 12 4 12 2 4 -8 -7 -8 -11 -16 -9 -18 1 -2 -4 2
-10 10 -9 10 -13 11 -13 3 0 -7 -5 -12 -12 -12 -9 0 -9 3 0 12 17 17 15 26 -5
31 -17 4 -17 5 0 6 10 0 20 -6 24 -15z m-3444 -9 c-3 -9 -8 -14 -10 -11 -3 3
-2 9 2 15 9 16 15 13 8 -4z m13 -20 c-3 -8 0 -15 6 -15 6 0 9 -3 5 -6 -10 -11
-26 6 -20 21 3 8 7 15 10 15 3 0 3 -7 -1 -15z m119 -3 c-3 -3 -11 0 -18 7 -9
10 -8 11 6 5 10 -3 15 -9 12 -12z m49 10 c3 -5 -1 -9 -9 -9 -8 0 -12 4 -9 9 3
4 7 8 9 8 2 0 6 -4 9 -8z m66 2 c0 -8 -19 -13 -24 -6 -3 5 1 9 9 9 8 0 15 -2
15 -3z m3081 -27 c-10 -9 -11 -8 -5 6 3 10 9 15 12 12 3 -3 0 -11 -7 -18z
m-3254 -2 c0 -8 -4 -12 -9 -9 -4 3 -8 9 -8 15 0 5 4 9 8 9 5 0 9 -7 9 -15z
m34 -2 c13 -16 12 -17 -3 -4 -17 13 -22 21 -14 21 2 0 10 -8 17 -17z m99 13
c0 -2 -8 -10 -17 -17 -16 -13 -17 -12 -4 4 13 16 21 21 21 13z m84 -25 c-7 -8
-54 -9 -49 -1 2 3 15 6 29 6 14 0 23 -2 20 -5z m-239 -10 c3 -5 0 -13 -6 -17
-7 -4 -9 -3 -5 4 3 6 -2 13 -11 15 -16 4 -16 5 -1 6 9 0 19 -3 23 -8z m11 -33
c-9 -12 -16 -19 -16 -15 0 11 24 47 28 42 2 -2 -3 -14 -12 -27z m85 15 c13
-16 12 -17 -3 -4 -17 13 -22 21 -14 21 2 0 10 -8 17 -17z m44 8 c3 -5 2 -12
-3 -15 -5 -3 -9 1 -9 9 0 17 3 19 12 6z m265 5 c0 -3 -4 -8 -10 -11 -5 -3 -10
-1 -10 4 0 6 5 11 10 11 6 0 10 -2 10 -4z m2836 -8 c4 -7 3 -8 -4 -4 -7 4 -12
2 -12 -5 0 -7 -3 -10 -6 -6 -6 5 3 27 11 27 2 0 7 -5 11 -12z m146 -2 c10 6
11 4 0 -7 -10 -11 -15 -10 -30 6 -15 17 -15 18 0 6 9 -7 23 -9 30 -5z m-3149
-11 c-3 -9 -8 -14 -10 -11 -3 3 -2 9 2 15 9 16 15 13 8 -4z m-176 -2 c-4 -3
-1 -13 6 -21 11 -13 9 -14 -10 -1 -16 9 -19 16 -10 21 15 9 23 10 14 1z m148
-3 c3 -6 -1 -7 -9 -4 -18 7 -21 14 -7 14 6 0 13 -4 16 -10z m261 -2 c3 -4 -1
-5 -10 -4 -8 1 -18 5 -22 8 -3 4 1 5 10 4 8 -1 18 -5 22 -8z m2691 -3 c0 -8
-4 -12 -9 -9 -5 3 -6 10 -3 15 9 13 12 11 12 -6z m-3210 -41 c6 -13 7 -24 3
-24 -10 0 -25 20 -25 34 0 5 -7 11 -15 13 -12 4 -12 3 -1 -5 8 -6 9 -12 3 -16
-11 -7 -25 21 -17 35 8 13 39 -9 52 -37z m150 16 c-14 -11 -28 -20 -32 -20
-10 0 38 39 49 40 5 0 -3 -9 -17 -20z m143 6 c0 -2 -8 -10 -17 -17 -16 -13
-17 -12 -4 4 13 16 21 21 21 13z m2954 -12 c3 -8 2 -12 -4 -9 -6 3 -10 1 -10
-4 0 -6 -5 -11 -10 -11 -6 0 -5 8 2 20 15 24 14 24 22 4z m-3043 -11 c13 -17
13 -17 -6 -3 -11 8 -22 16 -24 17 -2 2 0 3 6 3 6 0 17 -8 24 -17z m43 9 c3 -5
-1 -9 -9 -9 -8 0 -12 4 -9 9 3 4 7 8 9 8 2 0 6 -4 9 -8z m142 0 c-8 -7 -66
-10 -70 -3 -2 3 13 7 35 7 22 1 37 -1 35 -4z m144 2 c0 -8 -19 -13 -24 -6 -3
5 1 9 9 9 8 0 15 -2 15 -3z m2827 -12 c1 -11 -5 -18 -17 -18 -18 0 -18 2 -3
18 9 10 17 18 17 18 1 0 2 -8 3 -18z m-88 -28 c-7 -8 -6 -14 3 -17 10 -4 8
-10 -7 -22 -11 -9 -20 -21 -20 -28 -1 -7 -7 -11 -14 -9 -21 5 -57 32 -43 32 7
0 11 4 8 9 -3 5 10 19 29 32 19 13 35 29 35 34 0 6 4 3 10 -5 5 -9 5 -19 -1
-26z m-2699 20 c0 -8 -19 -13 -24 -6 -3 5 1 9 9 9 8 0 15 -2 15 -3z m2515 -3
c3 -5 2 -12 -3 -15 -5 -3 -9 1 -9 9 0 17 3 19 12 6z m115 -13 c16 5 15 3 -15
-18 -11 -8 -17 -11 -13 -6 4 5 3 18 -3 30 -9 18 -8 19 3 5 7 -9 20 -14 28 -11z
m-3042 -1 c14 4 14 3 2 -5 -16 -12 -30 -7 -29 11 0 9 2 9 5 0 3 -7 13 -9 22
-6z m184 -2 c2 3 5 -2 5 -10 0 -19 0 -19 -23 7 -12 14 -13 18 -3 10 9 -6 18
-10 21 -7z m65 0 c0 -8 -4 -15 -9 -15 -10 0 -11 14 -1 23 9 10 10 9 10 -8z
m2739 3 c5 4 5 3 1 -2 -12 -15 -34 -15 -34 0 0 9 4 11 12 4 7 -5 16 -6 21 -2z
m-2930 -10 c3 -4 -1 -5 -10 -4 -8 1 -18 5 -22 8 -3 4 1 5 10 4 8 -1 18 -5 22
-8z m-165 -13 c3 2 5 -5 6 -16 2 -23 -12 -16 -29 14 -10 19 -9 20 4 10 8 -7
17 -11 19 -8z m129 -15 c7 -14 7 -20 0 -20 -5 0 -10 7 -10 16 0 9 -5 12 -12 8
-7 -4 -8 -3 -4 4 10 16 14 15 26 -8z m121 -3 c-10 -9 -11 -8 -5 6 3 10 9 15
12 12 3 -3 0 -11 -7 -18z m2773 15 c2 -4 -4 -8 -14 -8 -10 0 -16 4 -14 8 3 4
9 8 14 8 5 0 11 -4 14 -8z m56 -17 c7 -9 8 -15 2 -15 -5 0 -12 7 -16 15 -3 8
-4 15 -2 15 2 0 9 -7 16 -15z m-2860 -10 c-5 -7 -9 -14 -7 -16 1 -2 0 -3 -2
-1 -11 7 -7 29 5 29 9 0 11 -4 4 -12z m80 -10 c14 -19 14 -19 -2 -6 -10 7 -18
18 -18 24 0 6 1 8 3 6 1 -2 9 -13 17 -24z m40 16 c0 -6 -4 -12 -8 -15 -5 -3
-9 1 -9 9 0 8 4 15 9 15 4 0 8 -4 8 -9z m40 3 c0 -8 -19 -13 -24 -6 -3 5 1 9
9 9 8 0 15 -2 15 -3z m2677 -36 c6 -43 -4 -33 -12 12 -3 19 -3 32 0 28 4 -3 9
-21 12 -40z m63 32 c0 -5 -4 -10 -10 -10 -5 0 -10 5 -10 10 0 6 5 10 10 10 6
0 10 -4 10 -10z m-2948 -56 c-6 -12 -9 -7 -9 16 0 23 3 28 9 16 5 -9 5 -23 0
-32z m292 34 c-3 -4 -9 -8 -15 -8 -5 0 -9 4 -9 8 0 5 7 9 15 9 8 0 12 -4 9 -9z
m33 -3 c0 -8 -4 -12 -9 -9 -5 3 -6 10 -3 15 9 13 12 11 12 -6z m2481 -4 c-7
-9 -13 -18 -15 -20 -1 -2 -1 5 0 16 0 11 7 20 14 20 10 0 10 -4 1 -16z m-2938
-11 c0 -5 -2 -10 -4 -10 -3 0 -8 5 -11 10 -3 6 -1 10 4 10 6 0 11 -4 11 -10z
m591 -13 c-10 -9 -11 -8 -5 6 3 10 9 15 12 12 3 -3 0 -11 -7 -18z m2249 13 c0
-5 -5 -10 -11 -10 -5 0 -7 5 -4 10 3 6 8 10 11 10 2 0 4 -4 4 -10z m139 -12
c-12 -23 -20 -24 -12 0 6 15 5 16 -13 2 -17 -14 -18 -13 -7 1 18 23 45 21 32
-3z m-2810 -26 c-1 -15 -2 -15 -6 1 -2 9 -9 14 -15 11 -7 -4 -8 -2 -4 5 10 15
26 4 25 -17z m89 11 c-6 -7 -12 -13 -13 -13 -2 0 -5 6 -8 13 -3 7 3 13 14 13
13 0 15 -3 7 -13z m2642 13 c0 -2 -7 -7 -16 -10 -8 -3 -12 -2 -9 4 6 10 25 14
25 6z m-2604 -24 c-3 -3 0 -12 6 -21 10 -13 10 -14 -2 -4 -16 15 -23 46 -8 37
5 -3 7 -9 4 -12z m364 14 c0 -2 -8 -10 -17 -17 -16 -13 -17 -12 -4 4 13 16 21
21 21 13z m2196 -11 c-1 -8 -5 -17 -8 -21 -5 -4 -4 16 1 34 3 9 9 -1 7 -13z
m61 -7 c0 -13 -1 -17 -4 -10 -3 6 -10 9 -16 5 -7 -4 -6 1 2 10 17 21 17 21 18
-5z m-2584 -6 c15 -16 15 -19 2 -19 -8 0 -13 3 -10 5 3 3 0 11 -6 19 -17 20
-5 16 14 -5z m102 7 c3 -3 -7 -5 -22 -4 -16 1 -33 -2 -39 -6 -6 -5 -11 -3 -11
4 0 13 60 18 72 6z m102 -3 c2 -2 -9 -3 -26 -2 -16 0 -27 4 -25 8 4 7 43 3 51
-6z m78 5 c-9 -8 -36 -10 -30 -2 2 4 11 8 20 8 8 0 13 -3 10 -6z m2389 -3 c-3
-4 -9 -8 -15 -8 -5 0 -9 4 -9 8 0 5 7 9 15 9 8 0 12 -4 9 -9z m-2204 -12 c0
-3 -4 -8 -10 -11 -5 -3 -10 -1 -10 4 0 6 5 11 10 11 6 0 10 -2 10 -4z m1877
-16 c1 -11 -2 -22 -6 -24 -6 -4 -7 26 -2 42 3 8 7 -1 8 -18z m153 16 c0 -2 -8
-10 -17 -17 -16 -13 -17 -12 -4 4 13 16 21 21 21 13z m-2193 -21 c0 -8 -4 -15
-9 -15 -10 0 -11 14 -1 23 9 10 10 9 10 -8z m240 0 c0 -8 -4 -12 -9 -9 -5 3
-6 10 -3 15 9 13 12 11 12 -6z m2073 0 c0 -8 -4 -15 -10 -15 -5 0 -7 7 -4 15
4 8 8 15 10 15 2 0 4 -7 4 -15z m-2746 -8 c-3 -9 4 -13 21 -13 15 0 24 5 21
11 -2 7 2 12 9 12 10 0 11 -5 4 -19 -6 -10 -14 -16 -20 -13 -5 4 -9 2 -9 -4 0
-15 18 -23 25 -11 3 5 11 10 18 10 6 0 3 -6 -6 -12 -12 -9 -14 -17 -7 -28 5
-8 10 -10 10 -5 0 6 4 3 10 -5 5 -8 13 -11 17 -6 4 4 0 14 -11 21 -18 13 -18
14 2 12 14 -1 19 -7 17 -24 -1 -13 2 -26 6 -29 5 -3 9 1 9 8 0 10 3 9 10 -2 5
-9 5 -19 -2 -27 -8 -10 -2 -11 26 -8 19 3 38 0 41 -5 6 -10 -7 -14 -34 -11 -8
2 -10 -3 -5 -11 4 -7 3 -10 -1 -5 -5 4 -17 0 -27 -10 -11 -10 -18 -12 -19 -5
-3 21 -4 27 -12 40 -5 7 -12 10 -16 7 -5 -2 -17 2 -27 10 -13 10 -15 14 -5 15
11 0 11 3 1 15 -7 8 -17 12 -24 8 -6 -4 -5 1 2 10 12 14 11 20 -2 39 -9 13
-20 22 -24 20 -4 -2 -8 4 -10 12 -2 9 1 16 7 16 6 0 8 -6 5 -13z m201 3 c3 -6
-1 -7 -9 -4 -18 7 -21 14 -7 14 6 0 13 -4 16 -10z m2445 6 c0 -2 -8 -10 -17
-17 -16 -13 -17 -12 -4 4 13 16 21 21 21 13z m-2469 -23 c13 -16 12 -17 -3 -4
-17 13 -22 21 -14 21 2 0 10 -8 17 -17z m159 13 c0 -2 -8 -10 -17 -17 -16 -13
-17 -12 -4 4 13 16 21 21 21 13z m-237 -21 c-3 -9 -8 -14 -10 -11 -3 3 -2 9 2
15 9 16 15 13 8 -4z m2434 8 c-4 -3 1 -16 10 -27 18 -21 18 -21 -4 -2 -20 16
-23 36 -6 36 4 0 3 -3 0 -7z m47 -5 c-3 -4 -9 -8 -15 -8 -5 0 -9 4 -9 8 0 5 7
9 15 9 8 0 12 -4 9 -9z m240 -4 c9 -24 7 -28 -9 -14 -17 14 -20 30 -6 30 5 0
12 -7 15 -16z m-2587 -9 c0 -8 -3 -13 -5 -10 -3 3 -12 -1 -21 -7 -10 -8 -9 -4
3 10 23 26 23 26 23 7z m384 -2 c13 -16 12 -17 -3 -4 -17 13 -22 21 -14 21 2
0 10 -8 17 -17z m1816 2 c0 -8 -4 -15 -9 -15 -10 0 -11 14 -1 23 9 10 10 9 10
-8z m-2080 -10 c0 -8 -4 -12 -9 -9 -4 3 -8 9 -8 15 0 5 4 9 8 9 5 0 9 -7 9
-15z m63 5 c0 -5 -2 -10 -4 -10 -3 0 -8 5 -11 10 -3 6 -1 10 4 10 6 0 11 -4
11 -10z m35 0 c3 -5 1 -10 -4 -10 -6 0 -11 5 -11 10 0 6 2 10 4 10 3 0 8 -4
11 -10z m1850 0 c3 -6 -1 -7 -9 -4 -18 7 -21 14 -7 14 6 0 13 -4 16 -10z m95
0 c0 -5 -5 -10 -11 -10 -5 0 -7 5 -4 10 3 6 8 10 11 10 2 0 4 -4 4 -10z m217
-9 c-10 -12 -9 -14 6 -8 11 4 16 3 12 -4 -4 -5 -12 -8 -18 -6 -16 5 -17 34 -1
34 11 0 11 -3 1 -16z m-276 -8 c13 -16 12 -17 -3 -4 -17 13 -22 21 -14 21 2 0
10 -8 17 -17z m440 4 c-6 -8 -9 -17 -6 -20 3 -4 2 -5 -2 -2 -3 3 -15 -3 -26
-12 -18 -17 -18 -17 -6 9 6 15 15 25 20 23 4 -3 10 -1 14 5 3 5 9 10 12 10 3
0 0 -6 -6 -13z m-2641 -7 c0 -5 -4 -10 -10 -10 -5 0 -10 5 -10 10 0 6 5 10 10
10 6 0 10 -4 10 -10z m440 -2 c0 -4 -4 -8 -9 -8 -6 0 -12 4 -15 8 -3 5 1 9 9
9 8 0 15 -4 15 -9z m35 3 c3 -5 2 -12 -3 -15 -5 -3 -9 1 -9 9 0 17 3 19 12 6z
m205 -1 c0 -5 -5 -10 -11 -10 -5 0 -7 5 -4 10 3 6 8 10 11 10 2 0 4 -4 4 -10z
m1420 6 c0 -3 -4 -8 -10 -11 -5 -3 -10 -1 -10 4 0 6 5 11 10 11 6 0 10 -2 10
-4z m428 -16 c-7 -11 -16 -20 -20 -20 -11 0 -10 9 5 25 18 21 29 18 15 -5z
m-2128 7 c0 -2 -8 -11 -18 -20 -15 -14 -19 -15 -19 -2 0 8 4 12 8 9 4 -2 10 0
14 6 6 10 15 14 15 7z m1600 -1 c0 -2 -8 -10 -17 -17 -16 -13 -17 -12 -4 4 13
16 21 21 21 13z m41 -13 c13 -16 12 -17 -3 -4 -17 13 -22 21 -14 21 2 0 10 -8
17 -17z m-1981 -8 c-10 -12 -10 -15 0 -15 8 0 11 -3 7 -6 -3 -3 -11 -3 -17 1
-8 5 -8 11 1 21 6 8 14 14 16 14 3 0 0 -7 -7 -15z m68 -10 c-3 -3 -9 2 -12 12
-6 14 -5 15 5 6 7 -7 10 -15 7 -18z m66 16 c3 -5 -2 -15 -12 -22 -15 -12 -16
-12 -5 2 7 9 10 19 6 22 -3 4 -4 7 0 7 3 0 8 -4 11 -9z m111 -1 c3 -6 -1 -7
-9 -4 -18 7 -21 14 -7 14 6 0 13 -4 16 -10z m349 2 c3 -5 -1 -9 -9 -9 -8 0
-12 4 -9 9 3 4 7 8 9 8 2 0 6 -4 9 -8z m1601 -1 c-9 -8 -36 -10 -30 -2 2 4 11
8 20 8 8 0 13 -3 10 -6z m45 3 c0 -8 -19 -13 -24 -6 -3 5 1 9 9 9 8 0 15 -2
15 -3z m160 -5 c0 -8 -56 -6 -64 2 -3 3 10 5 29 5 19 0 35 -3 35 -7z m-141
-25 c-6 -7 -7 -19 -3 -25 4 -7 3 -9 -4 -5 -15 9 -11 43 5 43 9 0 10 -4 2 -13z
m81 1 c0 -12 -19 -12 -23 0 -4 9 -1 12 9 8 7 -3 14 -7 14 -8z m-2240 1 c0 -2
-6 -9 -14 -15 -11 -9 -16 -9 -22 0 -4 7 -3 9 4 5 6 -3 13 -2 17 4 6 10 15 14
15 6z m85 -16 c10 -11 16 -20 13 -20 -3 0 -13 9 -23 20 -10 11 -16 20 -13 20
3 0 13 -9 23 -20z m452 5 c0 -8 -4 -15 -9 -15 -10 0 -11 14 -1 23 9 10 10 9
10 -8z m278 6 c3 -5 2 -12 -3 -15 -5 -3 -9 1 -9 9 0 17 3 19 12 6z m1182 -6
c0 -8 -4 -12 -9 -9 -5 3 -6 10 -3 15 9 13 12 11 12 -6z m403 -5 c-6 -11 -13
-20 -16 -20 -2 0 0 9 6 20 6 11 13 20 16 20 2 0 0 -9 -6 -20z m-2523 4 c-3 -3
-12 -4 -19 -1 -8 3 -5 6 6 6 11 1 17 -2 13 -5z m397 -3 c-7 -8 -54 -9 -49 -1
2 3 15 6 29 6 14 0 23 -2 20 -5z m921 -1 c3 -5 1 -10 -4 -10 -6 0 -11 5 -11
10 0 6 2 10 4 10 3 0 8 -4 11 -10z m390 0 c3 -6 -1 -7 -9 -4 -18 7 -21 14 -7
14 6 0 13 -4 16 -10z m195 0 c0 -5 -2 -10 -4 -10 -3 0 -8 5 -11 10 -3 6 -1 10
4 10 6 0 11 -4 11 -10z m330 6 c0 -2 -8 -10 -17 -17 -16 -13 -17 -12 -4 4 13
16 21 21 21 13z m90 0 c0 -2 -7 -7 -16 -10 -8 -3 -12 -2 -9 4 6 10 25 14 25 6z
m-2170 -58 c-8 -7 -12 -9 -8 -4 4 5 2 18 -4 30 -10 20 -10 20 8 4 16 -15 16
-20 4 -30z m454 30 c-3 -4 -9 -8 -15 -8 -5 0 -9 4 -9 8 0 5 7 9 15 9 8 0 12
-4 9 -9z m126 6 c0 -8 -19 -13 -24 -6 -3 5 1 9 9 9 8 0 15 -2 15 -3z m27 -14
c1 -11 -2 -20 -7 -20 -6 0 -7 17 -1 38 3 8 7 -1 8 -18z m983 10 c0 -5 -5 -10
-11 -10 -5 0 -7 5 -4 10 3 6 8 10 11 10 2 0 4 -4 4 -10z m80 0 c0 -5 -5 -10
-11 -10 -5 0 -7 5 -4 10 3 6 8 10 11 10 2 0 4 -4 4 -10z m540 4 c0 -3 -7 -12
-16 -21 -12 -13 -18 -13 -27 -3 -9 10 -9 11 1 6 7 -4 15 -1 18 8 6 15 24 23
24 10z m-2047 -19 c-3 -9 -8 -14 -10 -11 -3 3 -2 9 2 15 9 16 15 13 8 -4z
m322 6 c3 -5 2 -12 -3 -15 -5 -3 -9 1 -9 9 0 17 3 19 12 6z m1364 -18 c2 -1
-5 -1 -16 0 -11 0 -20 7 -20 14 0 10 4 10 16 1 9 -7 18 -13 20 -15z m251 12
c-14 -17 -30 -20 -30 -4 0 5 4 8 9 4 5 -3 12 -1 16 5 3 5 9 10 12 10 3 0 0 -7
-7 -15z m-2133 -17 c-3 -8 -6 -5 -6 6 -1 11 2 17 5 13 3 -3 4 -12 1 -19z m136
2 c10 -12 9 -12 -4 -2 -9 6 -18 9 -21 6 -3 -3 -9 -1 -12 4 -9 15 22 8 37 -8z
m127 11 c0 -6 -4 -12 -8 -15 -5 -3 -9 1 -9 9 0 8 4 15 9 15 4 0 8 -4 8 -9z
m154 -7 c3 -8 2 -12 -4 -9 -6 3 -10 10 -10 16 0 14 7 11 14 -7z m280 0 c3 -8
2 -12 -4 -9 -6 3 -10 10 -10 16 0 14 7 11 14 -7z m840 8 c3 -5 -1 -9 -9 -9 -8
0 -12 4 -9 9 3 4 7 8 9 8 2 0 6 -4 9 -8z m421 -22 c2 -12 1 -20 -2 -16 -4 4
-8 16 -10 28 -4 28 6 18 12 -12z m202 8 c-3 -8 -6 -5 -6 6 -1 11 2 17 5 13 3
-3 4 -12 1 -19z m208 3 c3 -8 3 -12 -1 -8 -4 3 -20 -3 -35 -14 -16 -11 -29
-16 -29 -10 0 6 0 14 0 19 0 4 5 8 10 8 6 1 15 2 21 3 5 0 8 5 5 9 -3 5 1 9 9
9 8 0 17 -7 20 -16z m-2285 -17 c-6 -6 -6 -15 -2 -19 4 -5 2 -5 -5 -2 -6 4
-13 2 -15 -5 -3 -7 -7 -5 -11 6 -5 11 -3 15 5 10 7 -5 9 -2 6 7 -4 10 1 15 13
15 12 0 15 -4 9 -12z m445 6 c-3 -5 -12 -10 -18 -10 -7 0 -6 4 3 10 19 12 23
12 15 0z m-323 -14 c10 6 11 4 0 -7 -10 -11 -15 -10 -30 6 -15 17 -15 18 0 6
9 -7 23 -9 30 -5z m354 -22 c0 -13 -2 -22 -5 -19 -3 3 -6 17 -7 31 0 13 2 22
5 19 3 -3 6 -17 7 -31z m183 23 c8 -10 7 -14 -2 -14 -8 0 -14 6 -14 14 0 7 1
13 2 13 2 0 8 -6 14 -13z m176 4 c3 -5 2 -12 -3 -15 -5 -3 -9 1 -9 9 0 17 3
19 12 6z m642 -6 c0 -8 -4 -12 -9 -9 -5 3 -6 10 -3 15 9 13 12 11 12 -6z m320
1 c0 -15 -21 -16 -34 -1 -4 4 -3 5 4 1 6 -3 14 -2 18 4 8 14 12 13 12 -4z
m-1580 -11 c0 -8 -4 -12 -9 -9 -4 3 -8 9 -8 15 0 5 4 9 8 9 5 0 9 -7 9 -15z
m117 4 c3 -3 -10 -5 -29 -4 -18 0 -36 3 -39 6 -3 3 10 5 29 4 18 0 36 -3 39
-6z m56 7 c0 -2 -8 -10 -17 -17 -16 -13 -17 -12 -4 4 13 16 21 21 21 13z m170
0 c0 -3 -4 -8 -10 -11 -5 -3 -10 -1 -10 4 0 6 5 11 10 11 6 0 10 -2 10 -4z
m751 -13 c12 -16 12 -17 -2 -6 -9 7 -20 9 -24 5 -5 -4 -5 -1 -1 6 9 16 11 15
27 -5z m380 0 c13 -16 12 -17 -3 -4 -17 13 -22 21 -14 21 2 0 10 -8 17 -17z
m59 11 c0 -8 -19 -13 -24 -6 -3 5 1 9 9 9 8 0 15 -2 15 -3z m260 -6 c0 -4 -5
-8 -11 -8 -5 0 -7 -4 -4 -10 4 -6 -1 -7 -11 -3 -11 4 -13 8 -6 11 7 2 10 7 8
11 -3 4 1 8 9 8 8 0 15 -4 15 -9z m-1935 -8 c-3 -5 -1 -10 6 -10 7 0 10 -3 6
-6 -9 -9 -28 6 -22 17 4 5 8 9 11 9 3 0 2 -4 -1 -10z m84 -3 c8 -10 7 -14 -2
-14 -8 0 -14 6 -14 14 0 7 1 13 2 13 2 0 8 -6 14 -13z m757 1 c-3 -21 -16 -38
-29 -38 -7 0 -6 4 3 10 8 5 16 14 16 20 2 16 4 20 8 20 2 0 3 -6 2 -12z m479
3 c3 -5 2 -12 -3 -15 -5 -3 -9 1 -9 9 0 17 3 19 12 6z m-705 -4 c0 -2 -9 -12
-19 -21 -14 -13 -21 -14 -27 -5 -4 7 -3 10 3 6 6 -4 16 0 23 8 12 14 20 19 20
12z m190 -9 c0 -4 -4 -8 -9 -8 -6 0 -12 4 -15 8 -3 5 1 9 9 9 8 0 15 -4 15 -9z
m724 0 c-3 -4 -9 -8 -15 -8 -5 0 -9 4 -9 8 0 5 7 9 15 9 8 0 12 -4 9 -9z m349
-5 c-3 -7 -6 -13 -8 -13 -2 0 -5 6 -8 13 -3 8 1 14 8 14 7 0 11 -6 8 -14z
m-1826 1 c-3 -3 -12 -4 -19 -1 -8 3 -5 6 6 6 11 1 17 -2 13 -5z m85 -9 c2 3 5
-2 5 -10 0 -10 -4 -12 -12 -5 -7 5 -14 8 -17 5 -2 -3 -5 2 -5 10 0 10 4 12 12
5 7 -5 14 -8 17 -5z m42 -15 c-6 -6 -10 -3 -10 10 0 13 4 16 10 10 7 -7 7 -13
0 -20z m462 -4 c-2 -38 -12 -39 -12 -1 0 18 3 32 7 30 3 -3 5 -15 5 -29z m124
30 c0 -2 -6 -9 -14 -15 -11 -9 -16 -9 -22 0 -4 7 -3 9 4 5 6 -3 13 -2 17 4 6
10 15 14 15 6z m590 -11 c-14 -17 -30 -20 -30 -4 0 5 4 8 9 4 5 -3 12 -1 16 5
3 5 9 10 12 10 3 0 0 -7 -7 -15z m306 -11 c1 -9 0 -13 -4 -10 -3 4 -7 14 -8
22 -1 9 0 13 4 10 3 -4 7 -14 8 -22z m-1341 8 c-3 -3 0 -11 6 -19 17 -20 5
-16 -14 5 -15 16 -15 19 -2 19 8 0 13 -3 10 -5z m742 -9 c0 -8 -4 -10 -12 -3
-7 5 -16 6 -20 2 -5 -4 -5 -2 -2 4 9 15 34 13 34 -3z m89 5 c3 -4 -1 -5 -10
-4 -8 1 -18 5 -22 8 -3 4 1 5 10 4 8 -1 18 -5 22 -8z m94 7 c0 -7 -30 -13 -34
-7 -3 4 4 9 15 9 10 1 19 0 19 -2z m184 -3 c3 -5 -1 -9 -9 -9 -8 0 -15 4 -15
9 0 4 4 8 9 8 6 0 12 -4 15 -8z m306 -2 c-8 -5 -19 -10 -25 -10 -5 0 -3 5 5
10 8 5 20 10 25 10 6 0 3 -5 -5 -10z m74 1 c3 -5 0 -11 -7 -14 -8 -3 -14 1
-14 9 0 16 13 19 21 5z m34 -11 c-7 -10 -14 -17 -17 -15 -4 4 18 35 25 35 2 0
-1 -9 -8 -20z m222 11 c0 -5 -7 -11 -14 -14 -10 -4 -13 -1 -9 9 6 15 23 19 23
5z m-1820 -5 c0 -2 -8 -10 -17 -17 -16 -13 -17 -12 -4 4 13 16 21 21 21 13z
m1318 -21 c-3 -3 -9 2 -12 12 -6 14 -5 15 5 6 7 -7 10 -15 7 -18z m-1721 -2
c0 -15 -19 -12 -24 3 -2 6 3 11 10 11 8 0 14 -6 14 -14z m175 2 c-2 -5 7 -13
20 -17 22 -7 22 -7 -2 -5 -14 1 -24 7 -22 12 2 6 -7 13 -20 17 -22 7 -22 7 2
5 14 -1 24 -6 22 -12z m471 3 c-6 -7 -9 -21 -8 -30 2 -9 -4 -23 -13 -30 -13
-11 -14 -11 -7 2 6 8 10 22 10 30 0 17 13 40 22 40 3 0 1 -6 -4 -12z m42 2
c-3 -5 -12 -10 -18 -10 -7 0 -6 4 3 10 19 12 23 12 15 0z m30 -24 c0 -19 -3
-37 -6 -40 -4 -5 -4 62 0 72 4 10 7 -4 6 -32z m925 26 c0 -5 -7 -9 -15 -9 -8
0 -12 4 -9 9 3 4 9 8 15 8 5 0 9 -4 9 -8z m151 -9 c13 -16 12 -17 -3 -4 -10 7
-18 15 -18 17 0 8 8 3 21 -13z m389 6 c0 -12 -19 -21 -30 -14 -6 4 -8 10 -6
14 7 10 36 10 36 0z m-1599 -16 c13 -16 12 -17 -3 -4 -17 13 -22 21 -14 21 2
0 10 -8 17 -17z m479 -4 c0 -5 -4 -9 -8 -9 -5 0 -9 7 -9 15 0 8 4 12 9 9 4 -3
8 -9 8 -15z m321 4 c13 -16 12 -17 -3 -4 -10 7 -18 15 -18 17 0 8 8 3 21 -13z
m535 5 c5 4 6 3 2 -2 -4 -5 0 -15 10 -22 9 -7 12 -14 6 -14 -5 0 -20 9 -32 20
-24 22 -31 40 -9 21 8 -6 18 -7 23 -3z m-1619 -12 c-3 -8 1 -17 10 -20 9 -4
13 -9 10 -13 -4 -3 1 -12 11 -19 9 -7 12 -14 6 -14 -6 0 -17 7 -24 15 -7 8 -9
15 -4 15 5 0 1 5 -8 11 -15 8 -15 39 -1 39 3 0 3 -6 0 -14z m663 4 c0 -5 -2
-10 -4 -10 -3 0 -8 5 -11 10 -3 6 -1 10 4 10 6 0 11 -4 11 -10z m35 0 c3 -5 1
-10 -4 -10 -6 0 -11 5 -11 10 0 6 2 10 4 10 3 0 8 -4 11 -10z m209 -1 c-2 -4
-12 -6 -22 -4 -9 1 -22 -1 -28 -6 -6 -5 -11 -4 -11 4 0 8 13 13 33 13 18 0 31
-3 28 -7z m121 1 c-5 -8 -72 -7 -79 1 -3 2 15 5 39 5 24 0 42 -3 40 -6z m160
0 c3 -6 -1 -7 -9 -4 -18 7 -21 14 -7 14 6 0 13 -4 16 -10z m30 0 c3 -5 1 -10
-4 -10 -6 0 -11 5 -11 10 0 6 2 10 4 10 3 0 8 -4 11 -10z m244 7 c-2 -1 -13
-9 -24 -17 -19 -14 -19 -14 -6 3 7 9 18 17 24 17 6 0 8 -1 6 -3z m211 -2 c0
-7 -30 -13 -34 -7 -3 4 4 9 15 9 10 1 19 0 19 -2z m-1910 -17 c0 -4 -4 -8 -9
-8 -6 0 -12 4 -15 8 -3 5 1 9 9 9 8 0 15 -4 15 -9z m375 -8 c-3 -5 -1 -11 5
-15 5 -3 10 -12 10 -18 0 -7 -6 -3 -12 8 -15 25 -19 47 -7 39 5 -3 7 -9 4 -14z
m686 3 c13 -16 12 -17 -3 -4 -17 13 -22 21 -14 21 2 0 10 -8 17 -17z m730 -6
c-10 -9 -11 -8 -5 6 3 10 9 15 12 12 3 -3 0 -11 -7 -18z m-1454 7 c-3 -3 -12
-4 -19 -1 -8 3 -5 6 6 6 11 1 17 -2 13 -5z m443 2 c0 -2 -7 -7 -16 -10 -8 -3
-12 -2 -9 4 6 10 25 14 25 6z m963 -11 c-3 -9 -8 -14 -10 -11 -3 3 -2 9 2 15
9 16 15 13 8 -4z m68 -8 c-10 -9 -11 -8 -5 6 3 10 9 15 12 12 3 -3 0 -11 -7
-18z m-617 -17 c-6 -6 -10 -3 -10 10 0 13 4 16 10 10 7 -7 7 -13 0 -20z m-905
-22 c11 12 22 22 26 22 4 0 2 -6 -4 -13 -6 -8 -8 -17 -4 -20 9 -10 25 -9 19 1
-2 4 0 14 6 22 8 12 9 12 4 -2 -6 -20 10 -25 17 -5 4 7 6 8 6 1 1 -7 -11 -19
-25 -29 -15 -10 -23 -22 -20 -31 3 -9 1 -12 -4 -9 -6 3 -10 1 -10 -6 0 -8 -6
-6 -18 4 -10 10 -22 14 -27 10 -4 -5 -5 -2 -1 5 6 9 -1 11 -26 7 -21 -3 -28
-2 -20 3 11 8 11 10 -2 15 -14 6 -15 34 -1 57 3 5 19 -5 35 -23 l30 -32 19 23z
m11 36 c0 -8 -19 -13 -24 -6 -3 5 1 9 9 9 8 0 15 -2 15 -3z m235 -2 c-7 -8
-75 -10 -79 -3 -2 3 16 6 40 7 24 0 42 -2 39 -4z m177 -3 c2 -2 1 -3 -1 -1 -2
1 -14 -6 -25 -15 -15 -14 -18 -14 -8 -2 6 9 9 18 6 22 -3 3 1 4 10 3 8 -1 17
-4 18 -7z m208 7 c0 -2 -7 -7 -16 -10 -8 -3 -12 -2 -9 4 6 10 25 14 25 6z
m320 0 c0 -2 -7 -7 -16 -10 -8 -3 -12 -2 -9 4 6 10 25 14 25 6z m104 -5 c3 -4
-4 -7 -14 -6 -27 2 -33 10 -10 12 11 1 22 -2 24 -6z m96 0 c0 -6 -4 -12 -8
-15 -5 -3 -9 1 -9 9 0 8 4 15 9 15 4 0 8 -4 8 -9z m214 -7 c3 -8 2 -12 -4 -9
-6 3 -10 10 -10 16 0 14 7 11 14 -7z m-1239 -3 c3 -5 2 -12 -3 -15 -5 -3 -9 1
-9 9 0 17 3 19 12 6z m405 5 c0 -2 -8 -10 -17 -17 -16 -13 -17 -12 -4 4 13 16
21 21 21 13z m231 -23 c13 -16 12 -17 -3 -4 -17 13 -22 21 -14 21 2 0 10 -8
17 -17z m246 -6 c1 -11 1 -18 0 -16 -2 2 -8 11 -15 20 -9 12 -9 16 1 16 7 0
14 -9 14 -20z m81 4 c-7 -9 -13 -18 -15 -20 -1 -2 -1 5 0 16 0 11 7 20 14 20
10 0 10 -4 1 -16z m78 0 c-10 -10 -25 -18 -34 -16 -9 1 -24 -3 -32 -9 -13 -9
-13 -9 -2 6 7 9 22 15 32 13 10 -2 24 3 31 11 6 8 14 14 17 14 3 0 -3 -9 -12
-19z m155 -7 c5 -15 8 -29 5 -31 -2 -2 -8 10 -14 26 -13 38 -5 41 9 5z m86 20
c-3 -3 -12 -4 -19 -1 -8 3 -5 6 6 6 11 1 17 -2 13 -5z m-1531 -17 c8 3 14 1
14 -5 0 -13 -27 -9 -40 6 -7 8 -7 9 1 3 6 -5 18 -7 25 -4z m288 1 c-5 -8 -2
-9 10 -5 10 4 15 3 11 -3 -7 -12 -35 -13 -35 -2 0 9 10 22 17 22 2 0 1 -5 -3
-12z m185 -1 c8 -10 7 -14 -2 -14 -8 0 -14 6 -14 14 0 7 1 13 2 13 2 0 8 -6
14 -13z m115 -17 c-6 -6 -10 -3 -10 10 0 13 4 16 10 10 7 -7 7 -13 0 -20z
m-366 -5 c-3 -3 -9 2 -12 12 -6 14 -5 15 5 6 7 -7 10 -15 7 -18z m150 5 c-7
-10 -14 -17 -17 -15 -4 4 18 35 25 35 2 0 -1 -9 -8 -20z m478 8 c4 -7 4 -10
-1 -6 -4 4 -15 2 -24 -5 -14 -11 -14 -10 -2 6 16 20 18 21 27 5z m201 -5 c0
-8 -4 -10 -12 -3 -7 5 -16 6 -20 2 -5 -4 -5 -2 -2 4 9 15 34 13 34 -3z m283 7
c0 -5 -4 -10 -10 -10 -5 0 -10 5 -10 10 0 6 5 10 10 10 6 0 10 -4 10 -10z m31
-13 c-10 -9 -11 -8 -5 6 3 10 9 15 12 12 3 -3 0 -11 -7 -18z m349 19 c0 -2 -8
-10 -17 -17 -16 -13 -17 -12 -4 4 13 16 21 21 21 13z m-1059 -23 c13 -16 12
-17 -3 -4 -17 13 -22 21 -14 21 2 0 10 -8 17 -17z m35 -17 c0 -19 -3 -33 -7
-31 -7 5 -4 65 4 65 1 0 3 -15 3 -34z m44 30 c0 -2 -8 -10 -17 -17 -16 -13
-17 -12 -4 4 13 16 21 21 21 13z m241 -13 c13 -16 12 -17 -3 -4 -10 7 -18 15
-18 17 0 8 8 3 21 -13z m-573 -18 c-3 -3 -9 2 -12 12 -6 14 -5 15 5 6 7 -7 10
-15 7 -18z m701 9 c5 3 7 -3 4 -14 -3 -12 -6 -19 -7 -18 -1 2 -10 14 -21 28
-15 18 -15 21 -3 11 9 -7 21 -10 27 -7z m71 12 c0 -2 -7 -7 -16 -10 -8 -3 -12
-2 -9 4 6 10 25 14 25 6z m-830 -21 c0 -8 -4 -15 -10 -15 -5 0 -7 7 -4 15 4 8
8 15 10 15 2 0 4 -7 4 -15z m165 6 c3 -5 2 -12 -3 -15 -5 -3 -9 1 -9 9 0 17 3
19 12 6z m126 -8 c12 -14 12 -16 0 -8 -11 6 -13 4 -8 -9 4 -9 3 -15 -2 -11 -6
3 -9 14 -8 25 2 24 1 24 18 3z m229 2 c-14 -17 -30 -20 -30 -4 0 5 4 8 9 4 5
-3 12 -1 16 5 3 5 9 10 12 10 3 0 0 -7 -7 -15z m85 6 c3 -5 2 -12 -3 -15 -5
-3 -9 1 -9 9 0 17 3 19 12 6z m229 -16 c-17 -27 -29 -31 -39 -15 -4 6 1 7 12
3 10 -3 15 -3 11 2 -4 4 0 14 10 21 24 19 25 17 6 -11z m-797 -7 c-3 -8 -6 -5
-6 6 -1 11 2 17 5 13 3 -3 4 -12 1 -19z m878 12 c-3 -5 -12 -10 -18 -10 -7 0
-6 4 3 10 19 12 23 12 15 0z m-799 -20 c5 0 10 -7 11 -17 3 -17 2 -17 -5 0 -4
10 -12 18 -17 17 -5 -1 -11 4 -13 12 -3 11 -2 11 6 0 5 -8 13 -13 18 -12z m88
-1 c-3 -6 -12 -8 -19 -5 -31 12 -43 -46 -16 -78 16 -18 15 -18 -16 -2 -18 9
-33 22 -33 29 0 6 -5 4 -11 -6 -6 -9 -15 -14 -21 -11 -7 5 -5 11 6 20 15 11
14 12 -7 10 -14 0 -23 -6 -20 -12 2 -6 -7 -15 -21 -22 -21 -9 -26 -8 -41 14
-9 13 -20 22 -25 19 -5 -3 -11 -1 -15 4 -3 6 4 8 15 6 26 -5 52 4 44 16 -3 5
-2 9 3 8 21 -4 34 2 28 12 -4 6 2 5 13 -2 12 -7 18 -17 15 -22 -3 -5 0 -7 8
-5 8 3 19 -2 26 -11 10 -14 13 -12 24 12 12 26 20 31 48 28 8 -2 10 2 5 10 -4
8 -3 10 5 5 6 -4 9 -12 5 -17z m478 7 c7 4 8 2 4 -5 -9 -13 -26 -5 -25 12 0 9
2 8 6 -1 2 -6 10 -9 15 -6z m18 -21 c-7 -8 -16 -15 -21 -15 -5 0 -1 8 9 18 20
22 31 19 12 -3z m-830 -5 c0 -5 -2 -10 -4 -10 -3 0 -8 5 -11 10 -3 6 -1 10 4
10 6 0 11 -4 11 -10z m523 3 c3 -5 -6 -9 -20 -10 -19 -1 -22 1 -12 8 17 11 26
11 32 2z m167 -3 c18 -12 2 -12 -25 0 -13 6 -15 9 -5 9 8 0 22 -4 30 -9z m74
2 c2 -4 -4 -8 -14 -8 -10 0 -16 4 -14 8 3 4 9 8 14 8 5 0 11 -4 14 -8z m436
-2 c0 -5 -5 -10 -11 -10 -5 0 -7 5 -4 10 3 6 8 10 11 10 2 0 4 -4 4 -10z
m-815 -70 c6 -10 -13 -24 -36 -25 -10 -1 -15 4 -12 15 5 17 39 24 48 10z m75
-4 c23 4 24 3 5 -8 -11 -6 -23 -16 -27 -22 -4 -6 -8 -8 -9 -3 -1 4 -2 10 -3
15 -1 4 -5 14 -11 22 -7 12 -6 13 6 4 8 -6 25 -10 39 -8z m453 -12 c-7 -20
-19 -17 -19 5 0 11 6 17 13 14 6 -3 9 -11 6 -19z"/>
<path d="M2027 3959 c7 -7 15 -10 18 -7 3 3 -2 9 -12 12 -14 6 -15 5 -6 -5z"/>
<path d="M2016 3916 c-10 -16 -12 -27 -6 -31 6 -4 9 -1 8 7 -2 7 2 12 7 11 6
-1 11 7 11 18 0 24 0 24 -20 -5z"/>
<path d="M2030 3861 c0 -5 7 -12 16 -15 14 -5 15 -4 4 9 -14 17 -20 19 -20 6z"/>
<path d="M2005 3800 c-6 -9 1 -14 18 -11 4 0 7 -3 7 -8 0 -5 6 -11 14 -14 10
-4 14 0 13 13 -1 10 -5 16 -10 13 -4 -2 -14 0 -22 7 -9 7 -15 8 -20 0z"/>
<path d="M2055 3220 c-8 -13 9 -20 24 -11 10 6 9 10 -3 14 -8 3 -18 2 -21 -3z"/>
<path d="M6193 2915 c0 -8 4 -12 9 -9 5 3 6 10 3 15 -9 13 -12 11 -12 -6z"/>
<path d="M2395 2550 c-4 -6 -3 -16 3 -22 6 -6 12 -6 17 2 4 6 3 16 -3 22 -6 6
-12 6 -17 -2z"/>
<path d="M5734 2338 c-36 -28 -40 -44 -14 -58 11 -6 20 -7 19 -3 -4 17 14 43
25 36 7 -4 7 -1 -1 7 -9 10 -10 17 -2 27 17 19 7 16 -27 -9z m4 -28 c-7 -11
-17 -20 -22 -20 -5 0 -1 9 9 20 10 11 20 20 22 20 2 0 -2 -9 -9 -20z"/>
<path d="M2845 2090 c11 -12 19 -25 17 -28 -5 -12 47 -12 54 0 4 7 4 10 0 6
-5 -4 -27 5 -50 19 -38 24 -40 24 -21 3z"/>
<path d="M2907 2023 c3 -7 6 -13 8 -13 1 0 7 6 13 13 8 10 6 13 -7 13 -11 0
-17 -6 -14 -13z"/>
<path d="M3355 1840 c-3 -6 0 -10 7 -10 11 0 10 -2 0 -9 -11 -6 -10 -10 5 -16
10 -5 22 -7 27 -6 5 1 16 -5 26 -14 15 -14 19 -14 29 -1 7 8 9 21 5 27 -5 9
-10 8 -19 -4 -11 -15 -15 -14 -43 13 -17 16 -34 25 -37 20z"/>
<path d="M3695 1730 c-16 -11 -24 -20 -17 -20 7 0 11 -4 8 -9 -4 -5 2 -8 11
-6 11 1 17 9 15 20 -3 12 1 16 12 12 10 -4 13 -1 9 9 -6 17 -2 18 -38 -6z"/>
<path d="M3795 1709 c-4 -6 -5 -12 -2 -15 2 -3 7 2 10 11 7 17 1 20 -8 4z"/>
<path d="M2176 4687 c3 -10 9 -15 12 -12 3 3 0 11 -7 18 -10 9 -11 8 -5 -6z"/>
<path d="M2035 4281 c-3 -5 -2 -12 3 -15 5 -3 9 1 9 9 0 17 -3 19 -12 6z"/>
<path d="M2033 4194 c4 -4 -1 -13 -11 -21 -16 -12 -16 -13 2 -6 15 5 17 3 11
-8 -8 -12 -6 -12 8 0 22 17 21 27 0 35 -10 4 -14 4 -10 0z"/>
<path d="M1959 3973 c-13 -16 -12 -17 4 -4 16 13 21 21 13 21 -2 0 -10 -8 -17
-17z"/>
<path d="M1936 3898 c3 -5 10 -6 15 -3 13 9 11 12 -6 12 -8 0 -12 -4 -9 -9z"/>
<path d="M6510 3839 c0 -5 5 -7 10 -4 6 3 10 8 10 11 0 2 -4 4 -10 4 -5 0 -10
-5 -10 -11z"/>
<path d="M1935 3829 c-4 -6 -5 -12 -2 -15 2 -3 7 2 10 11 7 17 1 20 -8 4z"/>
<path d="M1919 3788 c-7 -24 -4 -40 9 -50 15 -11 15 -11 6 2 -6 8 -10 23 -9
33 3 13 -2 26 -6 15z"/>
<path d="M6476 3661 c-3 -5 1 -14 8 -20 10 -9 16 -9 21 -1 4 6 1 9 -7 8 -7 -2
-12 3 -10 10 2 14 -4 16 -12 3z"/>
<path d="M1895 3620 c-3 -5 -1 -10 4 -10 6 0 11 5 11 10 0 6 -2 10 -4 10 -3 0
-8 -4 -11 -10z"/>
<path d="M6470 3621 c0 -6 4 -13 10 -16 6 -3 7 1 4 9 -7 18 -14 21 -14 7z"/>
<path d="M1934 3602 c3 -6 -2 -15 -11 -21 -10 -6 -13 -11 -7 -11 20 0 37 27
23 36 -7 4 -9 3 -5 -4z"/>
<path d="M1913 3525 c0 -8 10 -23 21 -32 21 -18 21 -18 4 2 -9 11 -17 24 -16
28 0 5 -2 11 -4 13 -3 2 -5 -3 -5 -11z"/>
<path d="M2025 3532 c3 -3 -1 -12 -7 -21 -8 -10 -4 -9 10 3 26 23 26 23 7 23
-8 0 -13 -3 -10 -5z"/>
<path d="M1946 3517 c3 -10 9 -15 12 -12 3 3 0 11 -7 18 -10 9 -11 8 -5 -6z"/>
<path d="M1955 3389 c11 -13 21 -26 22 -28 2 -2 3 2 3 10 0 8 -10 20 -22 28
l-23 14 20 -24z"/>
<path d="M2033 3403 c4 -3 3 -11 -3 -17 -5 -7 -5 -17 0 -26 6 -8 10 -10 11 -5
0 6 2 20 5 33 2 12 -1 22 -8 22 -6 0 -8 -3 -5 -7z"/>
<path d="M6416 3373 c-6 -14 -5 -15 5 -6 7 7 10 15 7 18 -3 3 -9 -2 -12 -12z"/>
<path d="M1935 3340 c-4 -6 -1 -9 7 -8 7 2 12 -3 10 -10 -1 -8 2 -11 8 -7 8 5
7 11 -1 21 -14 17 -16 17 -24 4z"/>
<path d="M6370 3299 c0 -5 -6 -7 -12 -3 -7 4 -10 3 -5 -1 4 -5 18 -10 30 -11
12 -2 16 0 9 2 -6 3 -10 10 -6 15 3 5 0 9 -5 9 -6 0 -11 -5 -11 -11z"/>
<path d="M6375 3260 c3 -5 8 -10 11 -10 2 0 4 5 4 10 0 6 -5 10 -11 10 -5 0
-7 -4 -4 -10z"/>
<path d="M6353 3165 c0 -8 4 -12 9 -9 5 3 6 10 3 15 -9 13 -12 11 -12 -6z"/>
<path d="M2080 3140 c-9 -6 -10 -10 -3 -10 6 0 15 5 18 10 8 12 4 12 -15 0z"/>
<path d="M1980 3120 c18 -12 30 -13 30 -2 0 4 -10 9 -22 9 -18 2 -20 0 -8 -7z"/>
<path d="M2110 3106 c0 -9 -5 -16 -11 -16 -8 0 -8 -4 0 -14 14 -17 4 -47 -14
-40 -8 3 -12 -4 -12 -20 0 -14 4 -26 9 -26 5 0 6 5 3 10 -3 6 -2 10 3 10 16 0
22 -13 11 -27 -9 -9 -8 -13 0 -13 6 0 11 5 11 10 0 18 16 10 17 -9 1 -14 -5
-18 -24 -17 -15 1 -28 -5 -31 -13 -3 -10 0 -12 14 -7 36 14 55 15 51 3 -2 -7
-10 -12 -18 -12 -8 0 -15 -3 -16 -7 -6 -17 -2 -28 8 -28 8 0 8 5 -1 15 -9 11
-9 15 -1 15 6 0 14 -6 17 -14 7 -19 32 -28 40 -14 5 7 2 8 -6 3 -9 -6 -11 -4
-5 5 6 9 4 11 -6 5 -11 -6 -11 -5 -2 5 6 7 9 19 6 27 -3 9 5 5 18 -8 21 -21
22 -26 9 -36 -8 -6 -12 -14 -9 -17 3 -3 16 4 29 16 22 21 22 22 4 29 -11 4
-26 14 -33 23 -7 9 -18 13 -25 10 -6 -3 -2 2 8 10 11 9 17 19 13 22 -4 4 -14
1 -24 -7 -9 -8 -14 -9 -10 -2 4 7 0 16 -10 22 -10 6 -13 11 -7 11 5 0 15 -5
22 -12 17 -17 15 4 -4 30 -8 12 -12 22 -8 22 5 0 3 5 -4 12 -7 7 -8 17 -2 29
7 11 7 20 0 24 -5 3 -10 -1 -10 -9z m2 -88 c-7 -7 -12 -8 -12 -2 0 14 12 26
19 19 2 -3 -1 -11 -7 -17z"/>
<path d="M2010 3079 c0 -5 5 -7 10 -4 6 3 10 8 10 11 0 2 -4 4 -10 4 -5 0 -10
-5 -10 -11z"/>
<path d="M6285 3080 c-4 -6 -11 -7 -17 -4 -7 4 -8 2 -4 -4 5 -9 13 -9 27 -2
10 6 19 13 19 15 0 9 -19 5 -25 -5z"/>
<path d="M2038 3025 c9 -11 18 -21 18 -23 1 -2 1 7 1 20 -1 15 -8 24 -19 24
-16 0 -16 -1 0 -21z"/>
<path d="M1985 3000 c-3 -6 1 -7 9 -4 18 7 21 14 7 14 -6 0 -13 -4 -16 -10z"/>
<path d="M6270 3000 c0 -5 5 -10 10 -10 6 0 10 5 10 10 0 6 -4 10 -10 10 -5 0
-10 -4 -10 -10z"/>
<path d="M6216 2985 c-3 -8 -1 -15 4 -15 13 0 22 18 11 24 -5 3 -11 -1 -15 -9z"/>
<path d="M2053 2969 c-2 -23 3 -25 10 -4 4 8 3 16 -1 19 -4 3 -9 -4 -9 -15z"/>
<path d="M6280 2960 c-12 -7 -10 -9 7 -7 12 0 19 5 17 9 -6 10 -6 10 -24 -2z"/>
<path d="M6210 2954 c0 -1 8 -8 17 -15 9 -8 14 -9 10 -2 -4 7 0 13 10 16 10 3
6 4 -9 4 -16 -1 -28 -2 -28 -3z"/>
<path d="M2123 2873 c9 -2 15 -9 12 -14 -4 -5 -3 -9 2 -10 70 -10 96 -2 69 20
-10 8 -16 9 -21 1 -3 -6 -11 -7 -17 -4 -7 4 -8 2 -4 -4 4 -7 3 -12 -2 -12 -6
0 -12 7 -16 15 -3 8 -13 14 -23 14 -17 -1 -17 -2 0 -6z"/>
<path d="M6206 2871 c-3 -5 2 -15 12 -22 15 -12 16 -12 5 2 -7 9 -10 19 -6 22
3 4 4 7 0 7 -3 0 -8 -4 -11 -9z"/>
<path d="M2113 2835 c0 -8 4 -12 9 -9 5 3 6 10 3 15 -9 13 -12 11 -12 -6z"/>
<path d="M2220 2820 c-8 -5 -12 -12 -9 -15 4 -3 12 1 19 10 14 17 11 19 -10 5z"/>
<path d="M6135 2810 c-2 -3 5 -7 16 -7 10 -1 19 2 19 6 0 9 -29 10 -35 1z"/>
<path d="M2094 2798 c-4 -7 -4 -10 1 -6 4 4 15 2 24 -5 14 -11 14 -10 2 6 -16
20 -18 21 -27 5z"/>
<path d="M6180 2766 c0 -2 8 -10 18 -17 15 -13 16 -12 3 4 -13 16 -21 21 -21
13z"/>
<path d="M2176 2737 c3 -10 9 -15 12 -12 3 3 0 11 -7 18 -10 9 -11 8 -5 -6z"/>
<path d="M6166 2742 c-3 -5 1 -9 9 -9 8 0 12 4 9 9 -3 4 -7 8 -9 8 -2 0 -6 -4
-9 -8z"/>
<path d="M2136 2727 c3 -10 9 -15 12 -12 3 3 0 11 -7 18 -10 9 -11 8 -5 -6z"/>
<path d="M2199 2723 c-3 -23 -4 -28 -12 -40 -5 -9 -3 -11 7 -7 19 7 26 28 15
45 -6 10 -9 11 -10 2z"/>
<path d="M2155 2701 c-3 -5 -2 -12 3 -15 5 -3 9 1 9 9 0 17 -3 19 -12 6z"/>
<path d="M6120 2695 c-19 -22 -8 -25 13 -3 9 10 13 18 8 18 -5 0 -14 -7 -21
-15z"/>
<path d="M6146 2678 c3 -5 10 -6 15 -3 13 9 11 12 -6 12 -8 0 -12 -4 -9 -9z"/>
<path d="M2176 2633 c-6 -14 -5 -15 5 -6 7 7 10 15 7 18 -3 3 -9 -2 -12 -12z"/>
<path d="M2210 2640 c0 -5 5 -10 11 -10 5 0 7 5 4 10 -3 6 -8 10 -11 10 -2 0
-4 -4 -4 -10z"/>
<path d="M6077 2613 c-10 -9 -9 -23 1 -23 5 0 9 7 9 15 0 17 -1 18 -10 8z"/>
<path d="M6106 2602 c-3 -5 1 -9 9 -9 8 0 12 4 9 9 -3 4 -7 8 -9 8 -2 0 -6 -4
-9 -8z"/>
<path d="M2350 2596 c0 -2 8 -10 18 -17 15 -13 16 -12 3 4 -13 16 -21 21 -21
13z"/>
<path d="M6040 2585 c-9 -11 -10 -19 -3 -26 8 -8 13 -7 18 2 5 8 4 10 -3 5
-16 -9 -15 7 0 22 7 7 9 12 6 12 -3 0 -11 -7 -18 -15z"/>
<path d="M2236 2582 c-3 -5 1 -9 9 -9 8 0 12 4 9 9 -3 4 -7 8 -9 8 -2 0 -6 -4
-9 -8z"/>
<path d="M2255 2551 c-3 -5 -2 -12 3 -15 5 -3 9 1 9 9 0 17 -3 19 -12 6z"/>
<path d="M2275 2521 c-3 -5 -2 -12 3 -15 5 -3 9 1 9 9 0 17 -3 19 -12 6z"/>
<path d="M6050 2519 c0 -5 5 -7 10 -4 6 3 10 8 10 11 0 2 -4 4 -10 4 -5 0 -10
-5 -10 -11z"/>
<path d="M2430 2500 c0 -5 5 -10 10 -10 6 0 10 5 10 10 0 6 -4 10 -10 10 -5 0
-10 -4 -10 -10z"/>
<path d="M2315 2480 c3 -5 8 -10 11 -10 2 0 4 5 4 10 0 6 -5 10 -11 10 -5 0
-7 -4 -4 -10z"/>
<path d="M5835 2450 c3 -5 8 -10 11 -10 2 0 4 5 4 10 0 6 -5 10 -11 10 -5 0
-7 -4 -4 -10z"/>
<path d="M6013 2435 c0 -8 4 -12 9 -9 5 3 6 10 3 15 -9 13 -12 11 -12 -6z"/>
<path d="M2382 2424 c-7 -8 -8 -14 -3 -14 10 0 25 19 20 25 -2 1 -10 -3 -17
-11z"/>
<path d="M5973 2425 c0 -8 4 -15 9 -15 4 0 8 4 8 9 0 6 -4 12 -8 15 -5 3 -9
-1 -9 -9z"/>
<path d="M2396 2378 c3 -5 10 -6 15 -3 13 9 11 12 -6 12 -8 0 -12 -4 -9 -9z"/>
<path d="M2439 2333 c-12 -16 -12 -17 2 -6 9 7 19 10 22 6 4 -3 7 -1 7 5 0 17
-16 15 -31 -5z"/>
<path d="M5870 2330 c-6 -11 -8 -20 -6 -20 3 0 10 9 16 20 6 11 8 20 6 20 -3
0 -10 -9 -16 -20z"/>
<path d="M5914 2300 c0 -13 4 -16 10 -10 7 7 7 13 0 20 -6 6 -10 3 -10 -10z"/>
<path d="M2620 2289 c-12 -9 -11 -10 5 -5 19 6 19 5 2 -8 -15 -12 -16 -14 -2
-20 8 -3 15 -1 15 5 0 5 6 4 14 -3 8 -7 10 -16 5 -19 -5 -3 -1 -13 9 -22 16
-15 19 -15 19 -2 0 8 -4 15 -9 15 -5 0 -7 3 -5 8 3 4 -5 19 -17 34 -16 21 -24
25 -36 17z"/>
<path d="M2515 2281 c-6 -11 13 -26 22 -17 4 3 1 6 -6 6 -7 0 -9 5 -6 10 3 6
4 10 1 10 -3 0 -7 -4 -11 -9z"/>
<path d="M5776 2265 c4 -8 8 -15 10 -15 2 0 4 7 4 15 0 8 -4 15 -10 15 -5 0
-7 -7 -4 -15z"/>
<path d="M2493 2255 c0 -8 4 -12 9 -9 5 3 6 10 3 15 -9 13 -12 11 -12 -6z"/>
<path d="M5688 2258 c10 -12 8 -18 -6 -32 -10 -9 -23 -13 -27 -9 -5 5 -3 0 4
-10 8 -9 16 -15 19 -12 3 2 11 -3 19 -13 8 -9 12 -11 8 -4 -4 7 3 16 17 21 17
7 19 10 6 10 -10 1 -18 6 -18 11 0 14 12 12 38 -6 12 -8 22 -13 22 -10 0 2
-21 19 -47 36 -26 18 -42 26 -35 18z m18 -37 c0 -12 -7 -19 -18 -18 -16 1 -16
3 -1 19 20 22 19 22 19 -1z"/>
<path d="M5810 2239 c0 -5 5 -7 10 -4 6 3 10 8 10 11 0 2 -4 4 -10 4 -5 0 -10
-5 -10 -11z"/>
<path d="M2575 2210 c-3 -6 1 -7 9 -4 18 7 21 14 7 14 -6 0 -13 -4 -16 -10z"/>
<path d="M2600 2193 c0 -6 8 -17 18 -24 16 -13 16 -13 2 6 -8 11 -16 22 -17
24 -2 2 -3 0 -3 -6z"/>
<path d="M2740 2181 c0 -6 4 -13 10 -16 6 -3 7 1 4 9 -7 18 -14 21 -14 7z"/>
<path d="M5736 2173 c-6 -14 -5 -15 5 -6 7 7 10 15 7 18 -3 3 -9 -2 -12 -12z"/>
<path d="M5670 2162 c0 -4 10 -9 22 -9 18 -2 20 0 8 7 -18 12 -30 13 -30 2z"/>
<path d="M2616 2138 c3 -5 10 -6 15 -3 13 9 11 12 -6 12 -8 0 -12 -4 -9 -9z"/>
<path d="M2675 2120 c3 -5 8 -10 11 -10 2 0 4 5 4 10 0 6 -5 10 -11 10 -5 0
-7 -4 -4 -10z"/>
<path d="M2716 2103 c-6 -14 -5 -15 5 -6 7 7 10 15 7 18 -3 3 -9 -2 -12 -12z"/>
<path d="M5664 2102 c4 -3 14 -7 22 -8 9 -1 13 0 10 4 -4 3 -14 7 -22 8 -9 1
-13 0 -10 -4z"/>
<path d="M5545 2071 c-3 -5 -1 -12 5 -16 6 -4 8 -10 6 -14 -3 -4 0 -13 5 -21
7 -11 8 -8 5 10 -3 14 -5 27 -6 30 -2 3 -2 8 -1 13 1 10 -7 9 -14 -2z"/>
<path d="M2730 2059 c0 -5 5 -7 10 -4 6 3 10 8 10 11 0 2 -4 4 -10 4 -5 0 -10
-5 -10 -11z"/>
<path d="M2765 2060 c3 -5 8 -10 11 -10 2 0 4 5 4 10 0 6 -5 10 -11 10 -5 0
-7 -4 -4 -10z"/>
<path d="M5599 2058 c-5 -18 -6 -38 -1 -34 7 8 12 36 6 36 -2 0 -4 -1 -5 -2z"/>
<path d="M2818 2018 c3 -13 7 -17 10 -10 2 7 8 10 13 6 5 -3 9 -3 9 0 0 3 -9
10 -19 15 -17 9 -18 8 -13 -11z"/>
<path d="M5346 2022 c-2 -4 4 -8 14 -8 10 0 16 4 14 8 -3 4 -9 8 -14 8 -5 0
-11 -4 -14 -8z"/>
<path d="M5492 2021 c-11 -7 -10 -9 3 -14 9 -4 14 -3 10 2 -3 5 1 12 7 14 7 3
9 6 3 6 -5 0 -16 -3 -23 -8z"/>
<path d="M2976 1995 c-3 -8 -10 -15 -16 -15 -6 0 -8 5 -4 11 4 8 0 8 -15 0
-21 -12 -28 -22 -13 -20 24 4 41 -4 47 -21 7 -23 31 -23 55 0 14 14 13 17 -14
38 -35 26 -32 26 -40 7z m45 -22 c8 -8 5 -14 -10 -22 -16 -9 -22 -8 -30 8 -6
10 -8 21 -5 24 8 8 33 2 45 -10z"/>
<path d="M2984 1972 c4 -3 14 -7 22 -8 9 -1 13 0 10 4 -4 3 -14 7 -22 8 -9 1
-13 0 -10 -4z"/>
<path d="M5265 1980 c-3 -5 -2 -10 4 -10 5 0 13 5 16 10 3 6 2 10 -4 10 -5 0
-13 -4 -16 -10z"/>
<path d="M5476 1978 c3 -5 10 -6 15 -3 13 9 11 12 -6 12 -8 0 -12 -4 -9 -9z"/>
<path d="M2873 1965 c0 -8 4 -12 9 -9 5 3 6 10 3 15 -9 13 -12 11 -12 -6z"/>
<path d="M5416 1961 c-4 -5 3 -7 14 -4 23 6 26 13 6 13 -8 0 -17 -4 -20 -9z"/>
<path d="M2937 1949 c7 -7 15 -10 18 -7 3 3 -2 9 -12 12 -14 6 -15 5 -6 -5z"/>
<path d="M2880 1940 c-12 -7 -10 -9 7 -7 12 0 19 5 17 9 -6 10 -6 10 -24 -2z"/>
<path d="M5202 1933 c5 -7 14 -10 19 -7 16 10 9 23 -10 21 -15 -1 -17 -4 -9
-14z"/>
<path d="M5146 1893 c-6 -14 -5 -15 5 -6 7 7 10 15 7 18 -3 3 -9 -2 -12 -12z"/>
<path d="M5300 1900 c0 -5 7 -7 15 -4 8 4 15 8 15 10 0 2 -7 4 -15 4 -8 0 -15
-4 -15 -10z"/>
<path d="M5359 1893 c-12 -16 -12 -17 2 -6 9 7 20 9 24 5 5 -4 5 -1 1 6 -9 16
-11 15 -27 -5z"/>
<path d="M2990 1879 c0 -5 5 -7 10 -4 6 3 10 8 10 11 0 2 -4 4 -10 4 -5 0 -10
-5 -10 -11z"/>
<path d="M3029 1877 c6 -8 7 -18 3 -22 -4 -5 -1 -5 6 -1 10 6 10 11 1 22 -6 8
-14 14 -16 14 -3 0 0 -6 6 -13z"/>
<path d="M5270 1880 c0 -5 5 -10 10 -10 6 0 10 5 10 10 0 6 -4 10 -10 10 -5 0
-10 -4 -10 -10z"/>
<path d="M5320 1880 c-9 -6 -10 -10 -3 -10 6 0 15 5 18 10 8 12 4 12 -15 0z"/>
<path d="M3097 1861 c-3 -12 0 -24 5 -28 6 -3 8 -1 4 5 -3 5 -2 12 4 14 5 2 6
9 1 16 -6 10 -10 9 -14 -7z"/>
<path d="M3155 1860 c-3 -5 -1 -10 4 -10 6 0 11 5 11 10 0 6 -2 10 -4 10 -3 0
-8 -4 -11 -10z"/>
<path d="M3310 1860 c0 -5 5 -10 11 -10 5 0 7 5 4 10 -3 6 -8 10 -11 10 -2 0
-4 -4 -4 -10z"/>
<path d="M4976 1844 c-3 -8 -10 -13 -15 -10 -5 3 -11 -4 -14 -16 -4 -12 -9
-19 -13 -15 -4 4 -13 2 -21 -4 -9 -8 -13 -8 -13 -1 0 19 -30 1 -45 -27 l-15
-26 6 30 c4 17 3 26 -2 22 -9 -8 -10 -12 -13 -39 0 -6 -9 -4 -21 7 -26 23 -48
8 -31 -22 5 -11 8 -31 5 -44 l-5 -24 11 24 c10 23 11 24 26 5 14 -18 15 -18 4
4 -6 12 -15 22 -20 22 -6 0 -10 5 -10 10 0 6 5 9 12 8 18 -4 37 -22 31 -30 -2
-4 4 -5 13 -1 11 4 13 8 6 11 -7 2 -9 8 -6 13 3 6 12 5 22 -3 14 -10 15 -10 5
2 -7 8 -13 19 -13 25 1 5 10 -1 22 -15 13 -15 19 -18 15 -8 -3 10 -2 20 3 23
13 8 18 -18 8 -40 -9 -19 -8 -19 6 -2 8 11 12 26 8 35 -5 15 -4 16 13 2 11 -9
16 -10 11 -2 -4 7 -2 12 4 12 6 0 8 5 5 10 -3 6 -1 10 4 10 6 0 11 -4 11 -10
0 -5 5 -10 11 -10 8 0 8 4 2 13 -12 15 -11 26 5 55 7 12 9 22 3 22 -5 0 -12
-7 -15 -16z m-23 -52 c-10 -10 -20 -14 -22 -9 -2 5 -8 3 -13 -4 -8 -11 -9 -11
-5 1 2 8 9 15 15 15 5 0 14 3 18 8 4 4 11 7 16 7 4 0 0 -8 -9 -18z m-61 -11
c8 11 9 11 6 1 -4 -16 -22 -18 -24 -2 -2 7 -1 6 3 -1 4 -8 8 -7 15 2z m-88
-19 c3 -5 -1 -9 -9 -9 -8 0 -12 4 -9 9 3 4 7 8 9 8 2 0 6 -4 9 -8z"/>
<path d="M3133 1830 c-1 -11 2 -22 6 -24 4 -3 7 4 6 14 -2 27 -10 33 -12 10z"/>
<path d="M5175 1841 c-3 -5 0 -13 6 -17 7 -4 9 -3 5 4 -3 5 0 13 6 15 9 4 10
6 1 6 -6 1 -14 -3 -18 -8z"/>
<path d="M5290 1845 c0 -7 30 -13 34 -7 3 4 -4 9 -15 9 -10 1 -19 0 -19 -2z"/>
<path d="M3173 1821 c0 -11 5 -18 9 -15 4 3 5 11 1 19 -7 21 -12 19 -10 -4z"/>
<path d="M5093 1795 c-3 -9 -3 -18 -1 -21 3 -3 8 4 11 16 6 23 -1 27 -10 5z"/>
<path d="M4720 1785 c-8 -9 -8 -15 -2 -15 12 0 26 19 19 26 -2 2 -10 -2 -17
-11z"/>
<path d="M3305 1780 c3 -5 8 -10 11 -10 2 0 4 5 4 10 0 6 -5 10 -11 10 -5 0
-7 -4 -4 -10z"/>
<path d="M3486 1782 c-3 -6 -1 -14 5 -17 14 -9 20 -2 10 14 -6 8 -11 9 -15 3z"/>
<path d="M5113 1773 c0 -9 4 -10 14 -2 7 6 13 12 13 14 0 1 -6 2 -13 2 -8 0
-14 -6 -14 -14z"/>
<path d="M3330 1760 c0 -5 5 -10 11 -10 5 0 7 5 4 10 -3 6 -8 10 -11 10 -2 0
-4 -4 -4 -10z"/>
<path d="M4992 1762 c-9 -6 -5 -12 15 -20 24 -11 26 -10 11 1 -10 8 -15 17
-11 20 9 9 1 8 -15 -1z"/>
<path d="M3371 1753 c-1 -17 16 -25 25 -12 4 7 3 9 -4 5 -5 -3 -13 0 -15 6 -4
9 -6 10 -6 1z"/>
<path d="M3610 1756 c0 -2 7 -7 16 -10 8 -3 12 -2 9 4 -6 10 -25 14 -25 6z"/>
<path d="M5076 1738 c3 -5 10 -6 15 -3 13 9 11 12 -6 12 -8 0 -12 -4 -9 -9z"/>
<path d="M4561 1726 c-9 -11 -3 -13 34 -11 25 1 47 4 50 7 3 3 -5 4 -17 4 -13
-1 -30 1 -39 6 -11 5 -21 2 -28 -6z"/>
<path d="M4470 1722 c0 -4 10 -13 23 -21 22 -14 22 -14 3 8 -20 22 -26 25 -26
13z"/>
<path d="M4125 1711 c-3 -5 -1 -12 5 -16 5 -3 10 1 10 9 0 18 -6 21 -15 7z"/>
<path d="M4149 1698 c-1 -13 0 -27 1 -33 2 -5 3 -18 4 -27 0 -9 4 -15 7 -12 4
2 10 0 14 -6 3 -5 12 -10 18 -10 7 0 4 5 -5 11 -10 5 -18 14 -18 20 0 5 11 2
24 -7 16 -10 23 -21 19 -32 -4 -13 -2 -12 10 3 8 10 13 25 10 32 -3 7 2 13 12
13 10 0 13 -4 9 -12 -5 -9 -3 -9 9 1 14 11 17 11 21 0 13 -39 15 -41 13 -11
-1 18 -7 38 -14 44 -10 8 -10 14 -2 24 9 11 8 14 -5 14 -10 0 -15 -4 -12 -9
12 -20 -29 -21 -55 -2 -24 18 -28 18 -33 5 -4 -11 -2 -15 8 -11 9 4 13 1 10
-6 -2 -7 -14 -14 -27 -14 -12 -1 -17 1 -12 5 14 10 18 42 5 42 -5 0 -11 -10
-11 -22z m72 -42 c5 3 7 9 5 13 -7 11 42 7 54 -5 8 -8 6 -11 -4 -11 -8 0 -13
4 -10 9 7 11 -3 10 -27 -3 -12 -6 -18 -17 -15 -25 4 -11 -2 -10 -23 5 -15 11
-32 17 -36 13 -5 -4 -5 -1 -1 6 4 7 11 10 16 7 5 -3 12 0 17 7 5 10 8 8 11 -5
2 -9 8 -15 13 -11z"/>
<path d="M4953 1705 c0 -8 4 -12 9 -9 5 3 6 10 3 15 -9 13 -12 11 -12 -6z"/>
<path d="M3910 1702 c0 -5 7 -9 15 -9 8 0 12 4 9 9 -3 4 -9 8 -15 8 -5 0 -9
-4 -9 -8z"/>
<path d="M4030 1706 c0 -2 7 -7 16 -10 8 -3 12 -2 9 4 -6 10 -25 14 -25 6z"/>
<path d="M4345 1701 c-6 -11 9 -23 19 -14 9 9 7 23 -3 23 -6 0 -12 -4 -16 -9z"/>
<path d="M3566 1682 c-3 -5 1 -9 9 -9 8 0 12 4 9 9 -3 4 -7 8 -9 8 -2 0 -6 -4
-9 -8z"/>
<path d="M3630 1661 c0 -6 4 -13 10 -16 6 -3 7 1 4 9 -7 18 -14 21 -14 7z"/>
<path d="M4615 1661 c-3 -5 0 -13 6 -17 7 -4 9 -3 5 4 -3 5 0 13 6 15 9 4 10
6 1 6 -6 1 -14 -3 -18 -8z"/>
<path d="M4691 1654 c0 -11 3 -14 6 -6 3 7 2 16 -1 19 -3 4 -6 -2 -5 -13z"/>
<path d="M4795 1660 c-3 -5 -1 -10 4 -10 6 0 11 5 11 10 0 6 -2 10 -4 10 -3 0
-8 -4 -11 -10z"/>
<path d="M4835 1660 c3 -5 8 -10 11 -10 2 0 4 5 4 10 0 6 -5 10 -11 10 -5 0
-7 -4 -4 -10z"/>
<path d="M3756 1642 c-2 -4 -1 -14 4 -22 7 -11 9 -9 7 8 -1 24 -3 26 -11 14z"/>
<path d="M4336 1632 c-2 -4 4 -8 14 -8 10 0 16 4 14 8 -3 4 -9 8 -14 8 -5 0
-11 -4 -14 -8z"/>
<path d="M4595 1631 c-3 -5 -2 -12 3 -15 5 -3 9 1 9 9 0 17 -3 19 -12 6z"/>
<path d="M3828 1623 c7 -3 16 -2 19 1 4 3 -2 6 -13 5 -11 0 -14 -3 -6 -6z"/>
<path d="M3990 1622 c0 -6 9 -12 20 -15 11 -3 20 -3 20 -1 0 2 -9 8 -20 14
-11 6 -20 7 -20 2z"/>
<path d="M4450 1622 c0 -4 11 -8 25 -8 28 0 24 8 -5 13 -11 2 -20 -1 -20 -5z"/>
<path d="M4626 1618 c3 -5 10 -6 15 -3 13 9 11 12 -6 12 -8 0 -12 -4 -9 -9z"/>
<path d="M4317 1609 c7 -7 15 -10 18 -7 3 3 -2 9 -12 12 -14 6 -15 5 -6 -5z"/>
<path d="M4570 1600 c0 -5 5 -10 11 -10 5 0 7 5 4 10 -3 6 -8 10 -11 10 -2 0
-4 -4 -4 -10z"/>
<path d="M3936 1587 c3 -10 9 -15 12 -12 3 3 0 11 -7 18 -10 9 -11 8 -5 -6z"/>
<path d="M3890 1579 c0 -5 5 -7 10 -4 6 3 10 8 10 11 0 2 -4 4 -10 4 -5 0 -10
-5 -10 -11z"/>
<path d="M4145 1580 c-3 -6 1 -7 9 -4 18 7 21 14 7 14 -6 0 -13 -4 -16 -10z"/>
</g>
</svg>
